<mxfile host="app.diagrams.net" modified="2024-01-03T19:28:25.394Z" agent="Mozilla/5.0 (Macintosh; Intel Mac OS X 10_15_7) AppleWebKit/537.36 (KHTML, like Gecko) Chrome/120.0.0.0 Safari/537.36" etag="81Xz7__AGUMajnRGkPeT" version="22.1.16" type="github" pages="2">
  <diagram name="Current State" id="tbZF8guMvgfieXO2qW0E">
    <mxGraphModel dx="2284" dy="783" grid="1" gridSize="10" guides="1" tooltips="1" connect="1" arrows="1" fold="1" page="1" pageScale="1" pageWidth="850" pageHeight="1100" math="0" shadow="0">
      <root>
        <mxCell id="0" />
        <mxCell id="1" parent="0" />
        <mxCell id="OGL_3rXN170n_kOUYhRo-1" value="&lt;b&gt;&lt;font style=&quot;font-size: 14px;&quot;&gt;TRIMS&lt;/font&gt;&lt;/b&gt;" style="rounded=1;whiteSpace=wrap;html=1;" vertex="1" parent="1">
          <mxGeometry x="-400" y="245" width="120" height="60" as="geometry" />
        </mxCell>
        <mxCell id="OGL_3rXN170n_kOUYhRo-2" value="" style="edgeStyle=entityRelationEdgeStyle;html=1;startArrow=none;startFill=0;endArrow=none;rounded=0;endFill=0;dashed=1;" edge="1" target="OGL_3rXN170n_kOUYhRo-3" parent="1">
          <mxGeometry width="50" relative="1" as="geometry">
            <mxPoint x="-280" y="275" as="sourcePoint" />
          </mxGeometry>
        </mxCell>
        <mxCell id="OGL_3rXN170n_kOUYhRo-3" value="&lt;b&gt;Data Integration&lt;br&gt;&lt;/b&gt;[Data Transformation Logic]" style="html=1;rounded=1;absoluteArcSize=1;arcSize=80;whiteSpace=wrap;fontSize=11;" vertex="1" parent="1">
          <mxGeometry x="-185" y="240" width="150" height="70" as="geometry" />
        </mxCell>
        <mxCell id="OGL_3rXN170n_kOUYhRo-4" value="" style="edgeStyle=entityRelationEdgeStyle;html=1;endArrow=blockThin;endFill=1;startArrow=none;rounded=0;startFill=0;dashed=1;entryX=0;entryY=0.25;entryDx=0;entryDy=0;" edge="1" source="OGL_3rXN170n_kOUYhRo-3" parent="1" target="OGL_3rXN170n_kOUYhRo-9">
          <mxGeometry width="180" relative="1" as="geometry">
            <mxPoint x="-20" y="320" as="targetPoint" />
          </mxGeometry>
        </mxCell>
        <mxCell id="OGL_3rXN170n_kOUYhRo-9" value="" style="rounded=1;whiteSpace=wrap;html=1;" vertex="1" parent="1">
          <mxGeometry x="90" y="181" width="410" height="375" as="geometry" />
        </mxCell>
        <mxCell id="OGL_3rXN170n_kOUYhRo-8" value="" style="rounded=1;whiteSpace=wrap;html=1;container=0;" vertex="1" parent="1">
          <mxGeometry x="120" y="230" width="90" height="230" as="geometry" />
        </mxCell>
        <mxCell id="OGL_3rXN170n_kOUYhRo-13" value="" style="rounded=1;whiteSpace=wrap;html=1;container=0;" vertex="1" parent="1">
          <mxGeometry x="267.20000000000005" y="230" width="90" height="180" as="geometry" />
        </mxCell>
        <mxCell id="OGL_3rXN170n_kOUYhRo-14" value="" style="rounded=1;whiteSpace=wrap;html=1;container=0;" vertex="1" parent="1">
          <mxGeometry x="385.6" y="230" width="90" height="130" as="geometry" />
        </mxCell>
        <mxCell id="OGL_3rXN170n_kOUYhRo-99" value="" style="shape=cylinder3;whiteSpace=wrap;html=1;boundedLbl=1;backgroundOutline=1;size=3;" vertex="1" parent="1">
          <mxGeometry x="140" y="250" width="20" height="30" as="geometry" />
        </mxCell>
        <mxCell id="OGL_3rXN170n_kOUYhRo-100" value="" style="shape=cylinder3;whiteSpace=wrap;html=1;boundedLbl=1;backgroundOutline=1;size=3;" vertex="1" parent="1">
          <mxGeometry x="140" y="305" width="20" height="30" as="geometry" />
        </mxCell>
        <mxCell id="OGL_3rXN170n_kOUYhRo-101" value="" style="shape=cylinder3;whiteSpace=wrap;html=1;boundedLbl=1;backgroundOutline=1;size=3;" vertex="1" parent="1">
          <mxGeometry x="140" y="360" width="20" height="30" as="geometry" />
        </mxCell>
        <mxCell id="OGL_3rXN170n_kOUYhRo-102" value="" style="shape=cylinder3;whiteSpace=wrap;html=1;boundedLbl=1;backgroundOutline=1;size=3;" vertex="1" parent="1">
          <mxGeometry x="140" y="410" width="20" height="30" as="geometry" />
        </mxCell>
        <mxCell id="OGL_3rXN170n_kOUYhRo-103" value="&lt;font style=&quot;font-size: 10px;&quot;&gt;Table&lt;/font&gt;" style="shape=table;startSize=30;container=1;collapsible=1;childLayout=tableLayout;fixedRows=1;rowLines=0;fontStyle=1;align=center;resizeLast=1;html=1;whiteSpace=wrap;" vertex="1" collapsed="1" parent="1">
          <mxGeometry x="170" y="250" width="70" height="30" as="geometry">
            <mxRectangle x="630" y="230" width="30" height="30" as="alternateBounds" />
          </mxGeometry>
        </mxCell>
        <mxCell id="OGL_3rXN170n_kOUYhRo-104" value="" style="shape=tableRow;horizontal=0;startSize=0;swimlaneHead=0;swimlaneBody=0;fillColor=none;collapsible=0;dropTarget=0;points=[[0,0.5],[1,0.5]];portConstraint=eastwest;top=0;left=0;right=0;bottom=0;html=1;" vertex="1" visible="0" parent="OGL_3rXN170n_kOUYhRo-103">
          <mxGeometry y="30" width="50" height="30" as="geometry" />
        </mxCell>
        <mxCell id="OGL_3rXN170n_kOUYhRo-105" value="PK,FK1" style="shape=partialRectangle;connectable=0;fillColor=none;top=0;left=0;bottom=0;right=0;fontStyle=1;overflow=hidden;html=1;whiteSpace=wrap;" vertex="1" parent="OGL_3rXN170n_kOUYhRo-104">
          <mxGeometry width="60" height="30" as="geometry">
            <mxRectangle width="60" height="30" as="alternateBounds" />
          </mxGeometry>
        </mxCell>
        <mxCell id="OGL_3rXN170n_kOUYhRo-106" value="Row 1" style="shape=partialRectangle;connectable=0;fillColor=none;top=0;left=0;bottom=0;right=0;align=left;spacingLeft=6;fontStyle=5;overflow=hidden;html=1;whiteSpace=wrap;" vertex="1" parent="OGL_3rXN170n_kOUYhRo-104">
          <mxGeometry x="60" width="-10" height="30" as="geometry">
            <mxRectangle width="-10" height="30" as="alternateBounds" />
          </mxGeometry>
        </mxCell>
        <mxCell id="OGL_3rXN170n_kOUYhRo-107" value="" style="shape=tableRow;horizontal=0;startSize=0;swimlaneHead=0;swimlaneBody=0;fillColor=none;collapsible=0;dropTarget=0;points=[[0,0.5],[1,0.5]];portConstraint=eastwest;top=0;left=0;right=0;bottom=1;html=1;" vertex="1" visible="0" parent="OGL_3rXN170n_kOUYhRo-103">
          <mxGeometry y="60" width="50" height="30" as="geometry" />
        </mxCell>
        <mxCell id="OGL_3rXN170n_kOUYhRo-108" value="PK,FK2" style="shape=partialRectangle;connectable=0;fillColor=none;top=0;left=0;bottom=0;right=0;fontStyle=1;overflow=hidden;html=1;whiteSpace=wrap;" vertex="1" parent="OGL_3rXN170n_kOUYhRo-107">
          <mxGeometry width="60" height="30" as="geometry">
            <mxRectangle width="60" height="30" as="alternateBounds" />
          </mxGeometry>
        </mxCell>
        <mxCell id="OGL_3rXN170n_kOUYhRo-109" value="Row 2" style="shape=partialRectangle;connectable=0;fillColor=none;top=0;left=0;bottom=0;right=0;align=left;spacingLeft=6;fontStyle=5;overflow=hidden;html=1;whiteSpace=wrap;" vertex="1" parent="OGL_3rXN170n_kOUYhRo-107">
          <mxGeometry x="60" width="-10" height="30" as="geometry">
            <mxRectangle width="-10" height="30" as="alternateBounds" />
          </mxGeometry>
        </mxCell>
        <mxCell id="OGL_3rXN170n_kOUYhRo-110" value="" style="shape=tableRow;horizontal=0;startSize=0;swimlaneHead=0;swimlaneBody=0;fillColor=none;collapsible=0;dropTarget=0;points=[[0,0.5],[1,0.5]];portConstraint=eastwest;top=0;left=0;right=0;bottom=0;html=1;" vertex="1" visible="0" parent="OGL_3rXN170n_kOUYhRo-103">
          <mxGeometry y="90" width="50" height="30" as="geometry" />
        </mxCell>
        <mxCell id="OGL_3rXN170n_kOUYhRo-111" value="" style="shape=partialRectangle;connectable=0;fillColor=none;top=0;left=0;bottom=0;right=0;editable=1;overflow=hidden;html=1;whiteSpace=wrap;" vertex="1" parent="OGL_3rXN170n_kOUYhRo-110">
          <mxGeometry width="60" height="30" as="geometry">
            <mxRectangle width="60" height="30" as="alternateBounds" />
          </mxGeometry>
        </mxCell>
        <mxCell id="OGL_3rXN170n_kOUYhRo-112" value="Row 3" style="shape=partialRectangle;connectable=0;fillColor=none;top=0;left=0;bottom=0;right=0;align=left;spacingLeft=6;overflow=hidden;html=1;whiteSpace=wrap;" vertex="1" parent="OGL_3rXN170n_kOUYhRo-110">
          <mxGeometry x="60" width="-10" height="30" as="geometry">
            <mxRectangle width="-10" height="30" as="alternateBounds" />
          </mxGeometry>
        </mxCell>
        <mxCell id="OGL_3rXN170n_kOUYhRo-113" value="" style="shape=tableRow;horizontal=0;startSize=0;swimlaneHead=0;swimlaneBody=0;fillColor=none;collapsible=0;dropTarget=0;points=[[0,0.5],[1,0.5]];portConstraint=eastwest;top=0;left=0;right=0;bottom=0;html=1;" vertex="1" visible="0" parent="OGL_3rXN170n_kOUYhRo-103">
          <mxGeometry y="120" width="50" height="30" as="geometry" />
        </mxCell>
        <mxCell id="OGL_3rXN170n_kOUYhRo-114" value="" style="shape=partialRectangle;connectable=0;fillColor=none;top=0;left=0;bottom=0;right=0;editable=1;overflow=hidden;html=1;whiteSpace=wrap;" vertex="1" parent="OGL_3rXN170n_kOUYhRo-113">
          <mxGeometry width="60" height="30" as="geometry">
            <mxRectangle width="60" height="30" as="alternateBounds" />
          </mxGeometry>
        </mxCell>
        <mxCell id="OGL_3rXN170n_kOUYhRo-115" value="Row 4" style="shape=partialRectangle;connectable=0;fillColor=none;top=0;left=0;bottom=0;right=0;align=left;spacingLeft=6;overflow=hidden;html=1;whiteSpace=wrap;" vertex="1" parent="OGL_3rXN170n_kOUYhRo-113">
          <mxGeometry x="60" width="-10" height="30" as="geometry">
            <mxRectangle width="-10" height="30" as="alternateBounds" />
          </mxGeometry>
        </mxCell>
        <mxCell id="OGL_3rXN170n_kOUYhRo-116" value="&lt;font style=&quot;font-size: 10px;&quot;&gt;Table&lt;/font&gt;" style="shape=table;startSize=30;container=1;collapsible=1;childLayout=tableLayout;fixedRows=1;rowLines=0;fontStyle=1;align=center;resizeLast=1;html=1;whiteSpace=wrap;" vertex="1" collapsed="1" parent="1">
          <mxGeometry x="170" y="305" width="70" height="30" as="geometry">
            <mxRectangle x="630" y="230" width="30" height="30" as="alternateBounds" />
          </mxGeometry>
        </mxCell>
        <mxCell id="OGL_3rXN170n_kOUYhRo-117" value="" style="shape=tableRow;horizontal=0;startSize=0;swimlaneHead=0;swimlaneBody=0;fillColor=none;collapsible=0;dropTarget=0;points=[[0,0.5],[1,0.5]];portConstraint=eastwest;top=0;left=0;right=0;bottom=0;html=1;" vertex="1" visible="0" parent="OGL_3rXN170n_kOUYhRo-116">
          <mxGeometry y="30" width="50" height="30" as="geometry" />
        </mxCell>
        <mxCell id="OGL_3rXN170n_kOUYhRo-118" value="PK,FK1" style="shape=partialRectangle;connectable=0;fillColor=none;top=0;left=0;bottom=0;right=0;fontStyle=1;overflow=hidden;html=1;whiteSpace=wrap;" vertex="1" parent="OGL_3rXN170n_kOUYhRo-117">
          <mxGeometry width="60" height="30" as="geometry">
            <mxRectangle width="60" height="30" as="alternateBounds" />
          </mxGeometry>
        </mxCell>
        <mxCell id="OGL_3rXN170n_kOUYhRo-119" value="Row 1" style="shape=partialRectangle;connectable=0;fillColor=none;top=0;left=0;bottom=0;right=0;align=left;spacingLeft=6;fontStyle=5;overflow=hidden;html=1;whiteSpace=wrap;" vertex="1" parent="OGL_3rXN170n_kOUYhRo-117">
          <mxGeometry x="60" width="-10" height="30" as="geometry">
            <mxRectangle width="-10" height="30" as="alternateBounds" />
          </mxGeometry>
        </mxCell>
        <mxCell id="OGL_3rXN170n_kOUYhRo-120" value="" style="shape=tableRow;horizontal=0;startSize=0;swimlaneHead=0;swimlaneBody=0;fillColor=none;collapsible=0;dropTarget=0;points=[[0,0.5],[1,0.5]];portConstraint=eastwest;top=0;left=0;right=0;bottom=1;html=1;" vertex="1" visible="0" parent="OGL_3rXN170n_kOUYhRo-116">
          <mxGeometry y="60" width="50" height="30" as="geometry" />
        </mxCell>
        <mxCell id="OGL_3rXN170n_kOUYhRo-121" value="PK,FK2" style="shape=partialRectangle;connectable=0;fillColor=none;top=0;left=0;bottom=0;right=0;fontStyle=1;overflow=hidden;html=1;whiteSpace=wrap;" vertex="1" parent="OGL_3rXN170n_kOUYhRo-120">
          <mxGeometry width="60" height="30" as="geometry">
            <mxRectangle width="60" height="30" as="alternateBounds" />
          </mxGeometry>
        </mxCell>
        <mxCell id="OGL_3rXN170n_kOUYhRo-122" value="Row 2" style="shape=partialRectangle;connectable=0;fillColor=none;top=0;left=0;bottom=0;right=0;align=left;spacingLeft=6;fontStyle=5;overflow=hidden;html=1;whiteSpace=wrap;" vertex="1" parent="OGL_3rXN170n_kOUYhRo-120">
          <mxGeometry x="60" width="-10" height="30" as="geometry">
            <mxRectangle width="-10" height="30" as="alternateBounds" />
          </mxGeometry>
        </mxCell>
        <mxCell id="OGL_3rXN170n_kOUYhRo-123" value="" style="shape=tableRow;horizontal=0;startSize=0;swimlaneHead=0;swimlaneBody=0;fillColor=none;collapsible=0;dropTarget=0;points=[[0,0.5],[1,0.5]];portConstraint=eastwest;top=0;left=0;right=0;bottom=0;html=1;" vertex="1" visible="0" parent="OGL_3rXN170n_kOUYhRo-116">
          <mxGeometry y="90" width="50" height="30" as="geometry" />
        </mxCell>
        <mxCell id="OGL_3rXN170n_kOUYhRo-124" value="" style="shape=partialRectangle;connectable=0;fillColor=none;top=0;left=0;bottom=0;right=0;editable=1;overflow=hidden;html=1;whiteSpace=wrap;" vertex="1" parent="OGL_3rXN170n_kOUYhRo-123">
          <mxGeometry width="60" height="30" as="geometry">
            <mxRectangle width="60" height="30" as="alternateBounds" />
          </mxGeometry>
        </mxCell>
        <mxCell id="OGL_3rXN170n_kOUYhRo-125" value="Row 3" style="shape=partialRectangle;connectable=0;fillColor=none;top=0;left=0;bottom=0;right=0;align=left;spacingLeft=6;overflow=hidden;html=1;whiteSpace=wrap;" vertex="1" parent="OGL_3rXN170n_kOUYhRo-123">
          <mxGeometry x="60" width="-10" height="30" as="geometry">
            <mxRectangle width="-10" height="30" as="alternateBounds" />
          </mxGeometry>
        </mxCell>
        <mxCell id="OGL_3rXN170n_kOUYhRo-126" value="" style="shape=tableRow;horizontal=0;startSize=0;swimlaneHead=0;swimlaneBody=0;fillColor=none;collapsible=0;dropTarget=0;points=[[0,0.5],[1,0.5]];portConstraint=eastwest;top=0;left=0;right=0;bottom=0;html=1;" vertex="1" visible="0" parent="OGL_3rXN170n_kOUYhRo-116">
          <mxGeometry y="120" width="50" height="30" as="geometry" />
        </mxCell>
        <mxCell id="OGL_3rXN170n_kOUYhRo-127" value="" style="shape=partialRectangle;connectable=0;fillColor=none;top=0;left=0;bottom=0;right=0;editable=1;overflow=hidden;html=1;whiteSpace=wrap;" vertex="1" parent="OGL_3rXN170n_kOUYhRo-126">
          <mxGeometry width="60" height="30" as="geometry">
            <mxRectangle width="60" height="30" as="alternateBounds" />
          </mxGeometry>
        </mxCell>
        <mxCell id="OGL_3rXN170n_kOUYhRo-128" value="Row 4" style="shape=partialRectangle;connectable=0;fillColor=none;top=0;left=0;bottom=0;right=0;align=left;spacingLeft=6;overflow=hidden;html=1;whiteSpace=wrap;" vertex="1" parent="OGL_3rXN170n_kOUYhRo-126">
          <mxGeometry x="60" width="-10" height="30" as="geometry">
            <mxRectangle width="-10" height="30" as="alternateBounds" />
          </mxGeometry>
        </mxCell>
        <mxCell id="uEnxF1vp-fD0cjR3ecQY-1" value="Staging" style="text;html=1;strokeColor=none;fillColor=none;align=center;verticalAlign=middle;whiteSpace=wrap;rounded=0;" vertex="1" parent="1">
          <mxGeometry x="130" y="470" width="60" height="30" as="geometry" />
        </mxCell>
        <mxCell id="uEnxF1vp-fD0cjR3ecQY-2" value="Conformance" style="text;html=1;strokeColor=none;fillColor=none;align=center;verticalAlign=middle;whiteSpace=wrap;rounded=0;" vertex="1" parent="1">
          <mxGeometry x="282.20000000000005" y="420" width="60" height="30" as="geometry" />
        </mxCell>
        <mxCell id="uEnxF1vp-fD0cjR3ecQY-3" value="Reporting" style="text;html=1;strokeColor=none;fillColor=none;align=center;verticalAlign=middle;whiteSpace=wrap;rounded=0;" vertex="1" parent="1">
          <mxGeometry x="400.6" y="370" width="60" height="30" as="geometry" />
        </mxCell>
        <mxCell id="uEnxF1vp-fD0cjR3ecQY-4" value="&lt;font style=&quot;font-size: 10px;&quot;&gt;Table&lt;/font&gt;" style="shape=table;startSize=30;container=1;collapsible=1;childLayout=tableLayout;fixedRows=1;rowLines=0;fontStyle=1;align=center;resizeLast=1;html=1;whiteSpace=wrap;" vertex="1" collapsed="1" parent="1">
          <mxGeometry x="330" y="245" width="50" height="30" as="geometry">
            <mxRectangle x="630" y="230" width="30" height="30" as="alternateBounds" />
          </mxGeometry>
        </mxCell>
        <mxCell id="uEnxF1vp-fD0cjR3ecQY-5" value="" style="shape=tableRow;horizontal=0;startSize=0;swimlaneHead=0;swimlaneBody=0;fillColor=none;collapsible=0;dropTarget=0;points=[[0,0.5],[1,0.5]];portConstraint=eastwest;top=0;left=0;right=0;bottom=0;html=1;" vertex="1" visible="0" parent="uEnxF1vp-fD0cjR3ecQY-4">
          <mxGeometry y="30" width="50" height="30" as="geometry" />
        </mxCell>
        <mxCell id="uEnxF1vp-fD0cjR3ecQY-6" value="PK,FK1" style="shape=partialRectangle;connectable=0;fillColor=none;top=0;left=0;bottom=0;right=0;fontStyle=1;overflow=hidden;html=1;whiteSpace=wrap;" vertex="1" parent="uEnxF1vp-fD0cjR3ecQY-5">
          <mxGeometry width="60" height="30" as="geometry">
            <mxRectangle width="60" height="30" as="alternateBounds" />
          </mxGeometry>
        </mxCell>
        <mxCell id="uEnxF1vp-fD0cjR3ecQY-7" value="Row 1" style="shape=partialRectangle;connectable=0;fillColor=none;top=0;left=0;bottom=0;right=0;align=left;spacingLeft=6;fontStyle=5;overflow=hidden;html=1;whiteSpace=wrap;" vertex="1" parent="uEnxF1vp-fD0cjR3ecQY-5">
          <mxGeometry x="60" width="-10" height="30" as="geometry">
            <mxRectangle width="-10" height="30" as="alternateBounds" />
          </mxGeometry>
        </mxCell>
        <mxCell id="uEnxF1vp-fD0cjR3ecQY-8" value="" style="shape=tableRow;horizontal=0;startSize=0;swimlaneHead=0;swimlaneBody=0;fillColor=none;collapsible=0;dropTarget=0;points=[[0,0.5],[1,0.5]];portConstraint=eastwest;top=0;left=0;right=0;bottom=1;html=1;" vertex="1" visible="0" parent="uEnxF1vp-fD0cjR3ecQY-4">
          <mxGeometry y="60" width="50" height="30" as="geometry" />
        </mxCell>
        <mxCell id="uEnxF1vp-fD0cjR3ecQY-9" value="PK,FK2" style="shape=partialRectangle;connectable=0;fillColor=none;top=0;left=0;bottom=0;right=0;fontStyle=1;overflow=hidden;html=1;whiteSpace=wrap;" vertex="1" parent="uEnxF1vp-fD0cjR3ecQY-8">
          <mxGeometry width="60" height="30" as="geometry">
            <mxRectangle width="60" height="30" as="alternateBounds" />
          </mxGeometry>
        </mxCell>
        <mxCell id="uEnxF1vp-fD0cjR3ecQY-10" value="Row 2" style="shape=partialRectangle;connectable=0;fillColor=none;top=0;left=0;bottom=0;right=0;align=left;spacingLeft=6;fontStyle=5;overflow=hidden;html=1;whiteSpace=wrap;" vertex="1" parent="uEnxF1vp-fD0cjR3ecQY-8">
          <mxGeometry x="60" width="-10" height="30" as="geometry">
            <mxRectangle width="-10" height="30" as="alternateBounds" />
          </mxGeometry>
        </mxCell>
        <mxCell id="uEnxF1vp-fD0cjR3ecQY-11" value="" style="shape=tableRow;horizontal=0;startSize=0;swimlaneHead=0;swimlaneBody=0;fillColor=none;collapsible=0;dropTarget=0;points=[[0,0.5],[1,0.5]];portConstraint=eastwest;top=0;left=0;right=0;bottom=0;html=1;" vertex="1" visible="0" parent="uEnxF1vp-fD0cjR3ecQY-4">
          <mxGeometry y="90" width="50" height="30" as="geometry" />
        </mxCell>
        <mxCell id="uEnxF1vp-fD0cjR3ecQY-12" value="" style="shape=partialRectangle;connectable=0;fillColor=none;top=0;left=0;bottom=0;right=0;editable=1;overflow=hidden;html=1;whiteSpace=wrap;" vertex="1" parent="uEnxF1vp-fD0cjR3ecQY-11">
          <mxGeometry width="60" height="30" as="geometry">
            <mxRectangle width="60" height="30" as="alternateBounds" />
          </mxGeometry>
        </mxCell>
        <mxCell id="uEnxF1vp-fD0cjR3ecQY-13" value="Row 3" style="shape=partialRectangle;connectable=0;fillColor=none;top=0;left=0;bottom=0;right=0;align=left;spacingLeft=6;overflow=hidden;html=1;whiteSpace=wrap;" vertex="1" parent="uEnxF1vp-fD0cjR3ecQY-11">
          <mxGeometry x="60" width="-10" height="30" as="geometry">
            <mxRectangle width="-10" height="30" as="alternateBounds" />
          </mxGeometry>
        </mxCell>
        <mxCell id="uEnxF1vp-fD0cjR3ecQY-14" value="" style="shape=tableRow;horizontal=0;startSize=0;swimlaneHead=0;swimlaneBody=0;fillColor=none;collapsible=0;dropTarget=0;points=[[0,0.5],[1,0.5]];portConstraint=eastwest;top=0;left=0;right=0;bottom=0;html=1;" vertex="1" visible="0" parent="uEnxF1vp-fD0cjR3ecQY-4">
          <mxGeometry y="120" width="50" height="30" as="geometry" />
        </mxCell>
        <mxCell id="uEnxF1vp-fD0cjR3ecQY-15" value="" style="shape=partialRectangle;connectable=0;fillColor=none;top=0;left=0;bottom=0;right=0;editable=1;overflow=hidden;html=1;whiteSpace=wrap;" vertex="1" parent="uEnxF1vp-fD0cjR3ecQY-14">
          <mxGeometry width="60" height="30" as="geometry">
            <mxRectangle width="60" height="30" as="alternateBounds" />
          </mxGeometry>
        </mxCell>
        <mxCell id="uEnxF1vp-fD0cjR3ecQY-16" value="Row 4" style="shape=partialRectangle;connectable=0;fillColor=none;top=0;left=0;bottom=0;right=0;align=left;spacingLeft=6;overflow=hidden;html=1;whiteSpace=wrap;" vertex="1" parent="uEnxF1vp-fD0cjR3ecQY-14">
          <mxGeometry x="60" width="-10" height="30" as="geometry">
            <mxRectangle width="-10" height="30" as="alternateBounds" />
          </mxGeometry>
        </mxCell>
        <mxCell id="uEnxF1vp-fD0cjR3ecQY-17" value="&lt;font style=&quot;font-size: 10px;&quot;&gt;Table&lt;/font&gt;" style="shape=table;startSize=30;container=1;collapsible=1;childLayout=tableLayout;fixedRows=1;rowLines=0;fontStyle=1;align=center;resizeLast=1;html=1;whiteSpace=wrap;" vertex="1" collapsed="1" parent="1">
          <mxGeometry x="450" y="240" width="40" height="30" as="geometry">
            <mxRectangle x="630" y="230" width="30" height="30" as="alternateBounds" />
          </mxGeometry>
        </mxCell>
        <mxCell id="uEnxF1vp-fD0cjR3ecQY-18" value="" style="shape=tableRow;horizontal=0;startSize=0;swimlaneHead=0;swimlaneBody=0;fillColor=none;collapsible=0;dropTarget=0;points=[[0,0.5],[1,0.5]];portConstraint=eastwest;top=0;left=0;right=0;bottom=0;html=1;" vertex="1" visible="0" parent="uEnxF1vp-fD0cjR3ecQY-17">
          <mxGeometry y="30" width="50" height="30" as="geometry" />
        </mxCell>
        <mxCell id="uEnxF1vp-fD0cjR3ecQY-19" value="PK,FK1" style="shape=partialRectangle;connectable=0;fillColor=none;top=0;left=0;bottom=0;right=0;fontStyle=1;overflow=hidden;html=1;whiteSpace=wrap;" vertex="1" parent="uEnxF1vp-fD0cjR3ecQY-18">
          <mxGeometry width="60" height="30" as="geometry">
            <mxRectangle width="60" height="30" as="alternateBounds" />
          </mxGeometry>
        </mxCell>
        <mxCell id="uEnxF1vp-fD0cjR3ecQY-20" value="Row 1" style="shape=partialRectangle;connectable=0;fillColor=none;top=0;left=0;bottom=0;right=0;align=left;spacingLeft=6;fontStyle=5;overflow=hidden;html=1;whiteSpace=wrap;" vertex="1" parent="uEnxF1vp-fD0cjR3ecQY-18">
          <mxGeometry x="60" width="-10" height="30" as="geometry">
            <mxRectangle width="-10" height="30" as="alternateBounds" />
          </mxGeometry>
        </mxCell>
        <mxCell id="uEnxF1vp-fD0cjR3ecQY-21" value="" style="shape=tableRow;horizontal=0;startSize=0;swimlaneHead=0;swimlaneBody=0;fillColor=none;collapsible=0;dropTarget=0;points=[[0,0.5],[1,0.5]];portConstraint=eastwest;top=0;left=0;right=0;bottom=1;html=1;" vertex="1" visible="0" parent="uEnxF1vp-fD0cjR3ecQY-17">
          <mxGeometry y="60" width="50" height="30" as="geometry" />
        </mxCell>
        <mxCell id="uEnxF1vp-fD0cjR3ecQY-22" value="PK,FK2" style="shape=partialRectangle;connectable=0;fillColor=none;top=0;left=0;bottom=0;right=0;fontStyle=1;overflow=hidden;html=1;whiteSpace=wrap;" vertex="1" parent="uEnxF1vp-fD0cjR3ecQY-21">
          <mxGeometry width="60" height="30" as="geometry">
            <mxRectangle width="60" height="30" as="alternateBounds" />
          </mxGeometry>
        </mxCell>
        <mxCell id="uEnxF1vp-fD0cjR3ecQY-23" value="Row 2" style="shape=partialRectangle;connectable=0;fillColor=none;top=0;left=0;bottom=0;right=0;align=left;spacingLeft=6;fontStyle=5;overflow=hidden;html=1;whiteSpace=wrap;" vertex="1" parent="uEnxF1vp-fD0cjR3ecQY-21">
          <mxGeometry x="60" width="-10" height="30" as="geometry">
            <mxRectangle width="-10" height="30" as="alternateBounds" />
          </mxGeometry>
        </mxCell>
        <mxCell id="uEnxF1vp-fD0cjR3ecQY-24" value="" style="shape=tableRow;horizontal=0;startSize=0;swimlaneHead=0;swimlaneBody=0;fillColor=none;collapsible=0;dropTarget=0;points=[[0,0.5],[1,0.5]];portConstraint=eastwest;top=0;left=0;right=0;bottom=0;html=1;" vertex="1" visible="0" parent="uEnxF1vp-fD0cjR3ecQY-17">
          <mxGeometry y="90" width="50" height="30" as="geometry" />
        </mxCell>
        <mxCell id="uEnxF1vp-fD0cjR3ecQY-25" value="" style="shape=partialRectangle;connectable=0;fillColor=none;top=0;left=0;bottom=0;right=0;editable=1;overflow=hidden;html=1;whiteSpace=wrap;" vertex="1" parent="uEnxF1vp-fD0cjR3ecQY-24">
          <mxGeometry width="60" height="30" as="geometry">
            <mxRectangle width="60" height="30" as="alternateBounds" />
          </mxGeometry>
        </mxCell>
        <mxCell id="uEnxF1vp-fD0cjR3ecQY-26" value="Row 3" style="shape=partialRectangle;connectable=0;fillColor=none;top=0;left=0;bottom=0;right=0;align=left;spacingLeft=6;overflow=hidden;html=1;whiteSpace=wrap;" vertex="1" parent="uEnxF1vp-fD0cjR3ecQY-24">
          <mxGeometry x="60" width="-10" height="30" as="geometry">
            <mxRectangle width="-10" height="30" as="alternateBounds" />
          </mxGeometry>
        </mxCell>
        <mxCell id="uEnxF1vp-fD0cjR3ecQY-27" value="" style="shape=tableRow;horizontal=0;startSize=0;swimlaneHead=0;swimlaneBody=0;fillColor=none;collapsible=0;dropTarget=0;points=[[0,0.5],[1,0.5]];portConstraint=eastwest;top=0;left=0;right=0;bottom=0;html=1;" vertex="1" visible="0" parent="uEnxF1vp-fD0cjR3ecQY-17">
          <mxGeometry y="120" width="50" height="30" as="geometry" />
        </mxCell>
        <mxCell id="uEnxF1vp-fD0cjR3ecQY-28" value="" style="shape=partialRectangle;connectable=0;fillColor=none;top=0;left=0;bottom=0;right=0;editable=1;overflow=hidden;html=1;whiteSpace=wrap;" vertex="1" parent="uEnxF1vp-fD0cjR3ecQY-27">
          <mxGeometry width="60" height="30" as="geometry">
            <mxRectangle width="60" height="30" as="alternateBounds" />
          </mxGeometry>
        </mxCell>
        <mxCell id="uEnxF1vp-fD0cjR3ecQY-29" value="Row 4" style="shape=partialRectangle;connectable=0;fillColor=none;top=0;left=0;bottom=0;right=0;align=left;spacingLeft=6;overflow=hidden;html=1;whiteSpace=wrap;" vertex="1" parent="uEnxF1vp-fD0cjR3ecQY-27">
          <mxGeometry x="60" width="-10" height="30" as="geometry">
            <mxRectangle width="-10" height="30" as="alternateBounds" />
          </mxGeometry>
        </mxCell>
        <mxCell id="uEnxF1vp-fD0cjR3ecQY-30" value="" style="shape=cylinder3;whiteSpace=wrap;html=1;boundedLbl=1;backgroundOutline=1;size=3;" vertex="1" parent="1">
          <mxGeometry x="290" y="245" width="20" height="30" as="geometry" />
        </mxCell>
        <mxCell id="uEnxF1vp-fD0cjR3ecQY-31" value="" style="shape=cylinder3;whiteSpace=wrap;html=1;boundedLbl=1;backgroundOutline=1;size=3;" vertex="1" parent="1">
          <mxGeometry x="410" y="245" width="20" height="30" as="geometry" />
        </mxCell>
        <mxCell id="uEnxF1vp-fD0cjR3ecQY-32" value="Batch Load" style="verticalLabelPosition=bottom;html=1;verticalAlign=top;align=center;strokeColor=none;fillColor=#00BEF2;shape=mxgraph.azure.scheduler;pointerEvents=1;" vertex="1" parent="1">
          <mxGeometry x="-140" y="150" width="40" height="50" as="geometry" />
        </mxCell>
        <mxCell id="uEnxF1vp-fD0cjR3ecQY-34" value="" style="shape=cylinder3;whiteSpace=wrap;html=1;boundedLbl=1;backgroundOutline=1;size=3;" vertex="1" parent="1">
          <mxGeometry x="290" y="305" width="20" height="30" as="geometry" />
        </mxCell>
        <mxCell id="uEnxF1vp-fD0cjR3ecQY-35" value="" style="shape=cylinder3;whiteSpace=wrap;html=1;boundedLbl=1;backgroundOutline=1;size=3;" vertex="1" parent="1">
          <mxGeometry x="290" y="360" width="20" height="30" as="geometry" />
        </mxCell>
        <mxCell id="uEnxF1vp-fD0cjR3ecQY-36" value="" style="shape=cylinder3;whiteSpace=wrap;html=1;boundedLbl=1;backgroundOutline=1;size=3;" vertex="1" parent="1">
          <mxGeometry x="410" y="305" width="20" height="30" as="geometry" />
        </mxCell>
        <mxCell id="uEnxF1vp-fD0cjR3ecQY-41" value="" style="rounded=1;whiteSpace=wrap;html=1;" vertex="1" parent="1">
          <mxGeometry x="700" y="430" width="90" height="80" as="geometry" />
        </mxCell>
        <mxCell id="uEnxF1vp-fD0cjR3ecQY-43" value="" style="group" vertex="1" connectable="0" parent="1">
          <mxGeometry x="700" y="214" width="90" height="70" as="geometry" />
        </mxCell>
        <mxCell id="uEnxF1vp-fD0cjR3ecQY-42" value="" style="rounded=1;whiteSpace=wrap;html=1;" vertex="1" parent="uEnxF1vp-fD0cjR3ecQY-43">
          <mxGeometry width="90" height="70" as="geometry" />
        </mxCell>
        <mxCell id="uEnxF1vp-fD0cjR3ecQY-37" value="" style="sketch=0;pointerEvents=1;shadow=0;dashed=0;html=1;strokeColor=none;fillColor=#505050;labelPosition=center;verticalLabelPosition=bottom;verticalAlign=top;outlineConnect=0;align=center;shape=mxgraph.office.servers.sharepoint_server;" vertex="1" parent="uEnxF1vp-fD0cjR3ecQY-43">
          <mxGeometry x="20" y="5" width="50" height="50" as="geometry" />
        </mxCell>
        <mxCell id="uEnxF1vp-fD0cjR3ecQY-45" value="" style="group" vertex="1" connectable="0" parent="1">
          <mxGeometry x="700" y="313" width="90" height="70" as="geometry" />
        </mxCell>
        <mxCell id="uEnxF1vp-fD0cjR3ecQY-44" value="" style="rounded=1;whiteSpace=wrap;html=1;" vertex="1" parent="uEnxF1vp-fD0cjR3ecQY-45">
          <mxGeometry y="10" width="90" height="70" as="geometry" />
        </mxCell>
        <mxCell id="uEnxF1vp-fD0cjR3ecQY-39" value="" style="sketch=0;pointerEvents=1;shadow=0;dashed=0;html=1;strokeColor=none;fillColor=#434445;aspect=fixed;labelPosition=center;verticalLabelPosition=bottom;verticalAlign=top;align=center;outlineConnect=0;shape=mxgraph.vvd.nsx_dashboard;" vertex="1" parent="uEnxF1vp-fD0cjR3ecQY-45">
          <mxGeometry x="20" y="21.75" width="50" height="46.5" as="geometry" />
        </mxCell>
        <mxCell id="uEnxF1vp-fD0cjR3ecQY-46" value="" style="endArrow=classic;html=1;rounded=0;entryX=0;entryY=0.5;entryDx=0;entryDy=0;" edge="1" parent="1" target="uEnxF1vp-fD0cjR3ecQY-42">
          <mxGeometry relative="1" as="geometry">
            <mxPoint x="500" y="250" as="sourcePoint" />
            <mxPoint x="600" y="250" as="targetPoint" />
          </mxGeometry>
        </mxCell>
        <mxCell id="uEnxF1vp-fD0cjR3ecQY-47" value="Feed Files" style="edgeLabel;resizable=0;html=1;align=center;verticalAlign=middle;" connectable="0" vertex="1" parent="uEnxF1vp-fD0cjR3ecQY-46">
          <mxGeometry relative="1" as="geometry" />
        </mxCell>
        <mxCell id="uEnxF1vp-fD0cjR3ecQY-48" value="" style="endArrow=classic;html=1;rounded=0;entryX=0;entryY=0.5;entryDx=0;entryDy=0;" edge="1" parent="1" target="uEnxF1vp-fD0cjR3ecQY-44">
          <mxGeometry relative="1" as="geometry">
            <mxPoint x="500" y="360" as="sourcePoint" />
            <mxPoint x="700" y="365" as="targetPoint" />
          </mxGeometry>
        </mxCell>
        <mxCell id="uEnxF1vp-fD0cjR3ecQY-49" value="Connection" style="edgeLabel;resizable=0;html=1;align=center;verticalAlign=middle;" connectable="0" vertex="1" parent="uEnxF1vp-fD0cjR3ecQY-48">
          <mxGeometry relative="1" as="geometry" />
        </mxCell>
        <mxCell id="uEnxF1vp-fD0cjR3ecQY-50" value="" style="endArrow=classic;html=1;rounded=0;entryX=0;entryY=0.5;entryDx=0;entryDy=0;" edge="1" parent="1" target="uEnxF1vp-fD0cjR3ecQY-41">
          <mxGeometry relative="1" as="geometry">
            <mxPoint x="500" y="470" as="sourcePoint" />
            <mxPoint x="600" y="470" as="targetPoint" />
          </mxGeometry>
        </mxCell>
        <mxCell id="uEnxF1vp-fD0cjR3ecQY-51" value="Feed Files" style="edgeLabel;resizable=0;html=1;align=center;verticalAlign=middle;" connectable="0" vertex="1" parent="uEnxF1vp-fD0cjR3ecQY-50">
          <mxGeometry relative="1" as="geometry" />
        </mxCell>
        <mxCell id="uEnxF1vp-fD0cjR3ecQY-52" value="Sharepoint" style="text;html=1;strokeColor=none;fillColor=none;align=center;verticalAlign=middle;whiteSpace=wrap;rounded=0;" vertex="1" parent="1">
          <mxGeometry x="715" y="284" width="60" height="30" as="geometry" />
        </mxCell>
        <mxCell id="uEnxF1vp-fD0cjR3ecQY-54" value="Dashboard/Reporting" style="text;html=1;strokeColor=none;fillColor=none;align=center;verticalAlign=middle;whiteSpace=wrap;rounded=0;" vertex="1" parent="1">
          <mxGeometry x="715" y="390" width="60" height="30" as="geometry" />
        </mxCell>
        <mxCell id="uEnxF1vp-fD0cjR3ecQY-56" value="" style="shape=image;html=1;verticalAlign=top;verticalLabelPosition=bottom;labelBackgroundColor=#ffffff;imageAspect=0;aspect=fixed;image=https://cdn2.iconfinder.com/data/icons/simple-files/128/CSV.png" vertex="1" parent="1">
          <mxGeometry x="710" y="440" width="30" height="30" as="geometry" />
        </mxCell>
        <mxCell id="uEnxF1vp-fD0cjR3ecQY-57" value="" style="shape=image;html=1;verticalAlign=top;verticalLabelPosition=bottom;labelBackgroundColor=#ffffff;imageAspect=0;aspect=fixed;image=https://cdn2.iconfinder.com/data/icons/simple-files/128/CSV.png" vertex="1" parent="1">
          <mxGeometry x="745" y="440" width="30" height="30" as="geometry" />
        </mxCell>
        <mxCell id="uEnxF1vp-fD0cjR3ecQY-58" value="" style="shape=image;html=1;verticalAlign=top;verticalLabelPosition=bottom;labelBackgroundColor=#ffffff;imageAspect=0;aspect=fixed;image=https://cdn2.iconfinder.com/data/icons/simple-files/128/CSV.png" vertex="1" parent="1">
          <mxGeometry x="710" y="473" width="30" height="30" as="geometry" />
        </mxCell>
        <mxCell id="uEnxF1vp-fD0cjR3ecQY-59" value="" style="shape=image;html=1;verticalAlign=top;verticalLabelPosition=bottom;labelBackgroundColor=#ffffff;imageAspect=0;aspect=fixed;image=https://cdn2.iconfinder.com/data/icons/simple-files/128/CSV.png" vertex="1" parent="1">
          <mxGeometry x="746" y="473" width="30" height="30" as="geometry" />
        </mxCell>
        <mxCell id="uEnxF1vp-fD0cjR3ecQY-60" value="Feed to Downstream Applications" style="text;html=1;strokeColor=none;fillColor=none;align=center;verticalAlign=middle;whiteSpace=wrap;rounded=0;" vertex="1" parent="1">
          <mxGeometry x="690" y="520" width="110" height="30" as="geometry" />
        </mxCell>
        <mxCell id="uEnxF1vp-fD0cjR3ecQY-61" value="&lt;font style=&quot;font-size: 10px;&quot;&gt;Table&lt;/font&gt;" style="shape=table;startSize=30;container=1;collapsible=1;childLayout=tableLayout;fixedRows=1;rowLines=0;fontStyle=1;align=center;resizeLast=1;html=1;whiteSpace=wrap;" vertex="1" collapsed="1" parent="1">
          <mxGeometry x="450" y="305" width="40" height="30" as="geometry">
            <mxRectangle x="630" y="230" width="30" height="30" as="alternateBounds" />
          </mxGeometry>
        </mxCell>
        <mxCell id="uEnxF1vp-fD0cjR3ecQY-62" value="" style="shape=tableRow;horizontal=0;startSize=0;swimlaneHead=0;swimlaneBody=0;fillColor=none;collapsible=0;dropTarget=0;points=[[0,0.5],[1,0.5]];portConstraint=eastwest;top=0;left=0;right=0;bottom=0;html=1;" vertex="1" visible="0" parent="uEnxF1vp-fD0cjR3ecQY-61">
          <mxGeometry y="30" width="50" height="30" as="geometry" />
        </mxCell>
        <mxCell id="uEnxF1vp-fD0cjR3ecQY-63" value="PK,FK1" style="shape=partialRectangle;connectable=0;fillColor=none;top=0;left=0;bottom=0;right=0;fontStyle=1;overflow=hidden;html=1;whiteSpace=wrap;" vertex="1" parent="uEnxF1vp-fD0cjR3ecQY-62">
          <mxGeometry width="60" height="30" as="geometry">
            <mxRectangle width="60" height="30" as="alternateBounds" />
          </mxGeometry>
        </mxCell>
        <mxCell id="uEnxF1vp-fD0cjR3ecQY-64" value="Row 1" style="shape=partialRectangle;connectable=0;fillColor=none;top=0;left=0;bottom=0;right=0;align=left;spacingLeft=6;fontStyle=5;overflow=hidden;html=1;whiteSpace=wrap;" vertex="1" parent="uEnxF1vp-fD0cjR3ecQY-62">
          <mxGeometry x="60" width="-10" height="30" as="geometry">
            <mxRectangle width="-10" height="30" as="alternateBounds" />
          </mxGeometry>
        </mxCell>
        <mxCell id="uEnxF1vp-fD0cjR3ecQY-65" value="" style="shape=tableRow;horizontal=0;startSize=0;swimlaneHead=0;swimlaneBody=0;fillColor=none;collapsible=0;dropTarget=0;points=[[0,0.5],[1,0.5]];portConstraint=eastwest;top=0;left=0;right=0;bottom=1;html=1;" vertex="1" visible="0" parent="uEnxF1vp-fD0cjR3ecQY-61">
          <mxGeometry y="60" width="50" height="30" as="geometry" />
        </mxCell>
        <mxCell id="uEnxF1vp-fD0cjR3ecQY-66" value="PK,FK2" style="shape=partialRectangle;connectable=0;fillColor=none;top=0;left=0;bottom=0;right=0;fontStyle=1;overflow=hidden;html=1;whiteSpace=wrap;" vertex="1" parent="uEnxF1vp-fD0cjR3ecQY-65">
          <mxGeometry width="60" height="30" as="geometry">
            <mxRectangle width="60" height="30" as="alternateBounds" />
          </mxGeometry>
        </mxCell>
        <mxCell id="uEnxF1vp-fD0cjR3ecQY-67" value="Row 2" style="shape=partialRectangle;connectable=0;fillColor=none;top=0;left=0;bottom=0;right=0;align=left;spacingLeft=6;fontStyle=5;overflow=hidden;html=1;whiteSpace=wrap;" vertex="1" parent="uEnxF1vp-fD0cjR3ecQY-65">
          <mxGeometry x="60" width="-10" height="30" as="geometry">
            <mxRectangle width="-10" height="30" as="alternateBounds" />
          </mxGeometry>
        </mxCell>
        <mxCell id="uEnxF1vp-fD0cjR3ecQY-68" value="" style="shape=tableRow;horizontal=0;startSize=0;swimlaneHead=0;swimlaneBody=0;fillColor=none;collapsible=0;dropTarget=0;points=[[0,0.5],[1,0.5]];portConstraint=eastwest;top=0;left=0;right=0;bottom=0;html=1;" vertex="1" visible="0" parent="uEnxF1vp-fD0cjR3ecQY-61">
          <mxGeometry y="90" width="50" height="30" as="geometry" />
        </mxCell>
        <mxCell id="uEnxF1vp-fD0cjR3ecQY-69" value="" style="shape=partialRectangle;connectable=0;fillColor=none;top=0;left=0;bottom=0;right=0;editable=1;overflow=hidden;html=1;whiteSpace=wrap;" vertex="1" parent="uEnxF1vp-fD0cjR3ecQY-68">
          <mxGeometry width="60" height="30" as="geometry">
            <mxRectangle width="60" height="30" as="alternateBounds" />
          </mxGeometry>
        </mxCell>
        <mxCell id="uEnxF1vp-fD0cjR3ecQY-70" value="Row 3" style="shape=partialRectangle;connectable=0;fillColor=none;top=0;left=0;bottom=0;right=0;align=left;spacingLeft=6;overflow=hidden;html=1;whiteSpace=wrap;" vertex="1" parent="uEnxF1vp-fD0cjR3ecQY-68">
          <mxGeometry x="60" width="-10" height="30" as="geometry">
            <mxRectangle width="-10" height="30" as="alternateBounds" />
          </mxGeometry>
        </mxCell>
        <mxCell id="uEnxF1vp-fD0cjR3ecQY-71" value="" style="shape=tableRow;horizontal=0;startSize=0;swimlaneHead=0;swimlaneBody=0;fillColor=none;collapsible=0;dropTarget=0;points=[[0,0.5],[1,0.5]];portConstraint=eastwest;top=0;left=0;right=0;bottom=0;html=1;" vertex="1" visible="0" parent="uEnxF1vp-fD0cjR3ecQY-61">
          <mxGeometry y="120" width="50" height="30" as="geometry" />
        </mxCell>
        <mxCell id="uEnxF1vp-fD0cjR3ecQY-72" value="" style="shape=partialRectangle;connectable=0;fillColor=none;top=0;left=0;bottom=0;right=0;editable=1;overflow=hidden;html=1;whiteSpace=wrap;" vertex="1" parent="uEnxF1vp-fD0cjR3ecQY-71">
          <mxGeometry width="60" height="30" as="geometry">
            <mxRectangle width="60" height="30" as="alternateBounds" />
          </mxGeometry>
        </mxCell>
        <mxCell id="uEnxF1vp-fD0cjR3ecQY-73" value="Row 4" style="shape=partialRectangle;connectable=0;fillColor=none;top=0;left=0;bottom=0;right=0;align=left;spacingLeft=6;overflow=hidden;html=1;whiteSpace=wrap;" vertex="1" parent="uEnxF1vp-fD0cjR3ecQY-71">
          <mxGeometry x="60" width="-10" height="30" as="geometry">
            <mxRectangle width="-10" height="30" as="alternateBounds" />
          </mxGeometry>
        </mxCell>
        <mxCell id="uEnxF1vp-fD0cjR3ecQY-74" value="" style="endArrow=none;dashed=1;html=1;dashPattern=1 3;strokeWidth=2;rounded=0;exitX=0.982;exitY=0.838;exitDx=0;exitDy=0;exitPerimeter=0;" edge="1" parent="1" source="OGL_3rXN170n_kOUYhRo-14">
          <mxGeometry width="50" height="50" relative="1" as="geometry">
            <mxPoint x="530" y="433" as="sourcePoint" />
            <mxPoint x="500" y="360" as="targetPoint" />
          </mxGeometry>
        </mxCell>
        <mxCell id="uEnxF1vp-fD0cjR3ecQY-75" value="1" style="text;html=1;strokeColor=none;fillColor=none;align=center;verticalAlign=middle;whiteSpace=wrap;rounded=0;" vertex="1" parent="1">
          <mxGeometry x="-370" y="323" width="60" height="30" as="geometry" />
        </mxCell>
        <mxCell id="uEnxF1vp-fD0cjR3ecQY-76" value="2" style="text;html=1;strokeColor=none;fillColor=none;align=center;verticalAlign=middle;whiteSpace=wrap;rounded=0;" vertex="1" parent="1">
          <mxGeometry x="-150" y="323" width="60" height="30" as="geometry" />
        </mxCell>
        <mxCell id="uEnxF1vp-fD0cjR3ecQY-77" value="3" style="text;html=1;strokeColor=none;fillColor=none;align=center;verticalAlign=middle;whiteSpace=wrap;rounded=0;" vertex="1" parent="1">
          <mxGeometry x="130" y="190" width="60" height="30" as="geometry" />
        </mxCell>
        <mxCell id="uEnxF1vp-fD0cjR3ecQY-78" value="4" style="text;html=1;strokeColor=none;fillColor=none;align=center;verticalAlign=middle;whiteSpace=wrap;rounded=0;" vertex="1" parent="1">
          <mxGeometry x="280" y="189" width="60" height="30" as="geometry" />
        </mxCell>
        <mxCell id="uEnxF1vp-fD0cjR3ecQY-79" value="5" style="text;html=1;strokeColor=none;fillColor=none;align=center;verticalAlign=middle;whiteSpace=wrap;rounded=0;" vertex="1" parent="1">
          <mxGeometry x="400.6" y="190" width="60" height="30" as="geometry" />
        </mxCell>
        <mxCell id="uEnxF1vp-fD0cjR3ecQY-80" value="6" style="text;html=1;strokeColor=none;fillColor=none;align=center;verticalAlign=middle;whiteSpace=wrap;rounded=0;" vertex="1" parent="1">
          <mxGeometry x="600" y="184" width="60" height="30" as="geometry" />
        </mxCell>
        <mxCell id="uEnxF1vp-fD0cjR3ecQY-81" value="&lt;h1&gt;Data Integration: TRIMS Product Processor To Vanguard&lt;/h1&gt;" style="text;html=1;strokeColor=none;fillColor=none;spacing=5;spacingTop=-20;whiteSpace=wrap;overflow=hidden;rounded=0;" vertex="1" parent="1">
          <mxGeometry x="-194.4" y="20" width="670" height="50" as="geometry" />
        </mxCell>
        <mxCell id="wmEXvG0R8FhYU_NZQ5m0-1" value="" style="group" vertex="1" connectable="0" parent="1">
          <mxGeometry x="237.5" y="530" width="122.5" height="90" as="geometry" />
        </mxCell>
        <mxCell id="OGL_3rXN170n_kOUYhRo-7" value="" style="shadow=0;dashed=0;html=1;strokeColor=none;fillColor=#4495D1;labelPosition=center;verticalLabelPosition=bottom;verticalAlign=top;align=center;outlineConnect=0;shape=mxgraph.veeam.storage_cluster;container=0;opacity=30;" vertex="1" parent="wmEXvG0R8FhYU_NZQ5m0-1">
          <mxGeometry x="29.700000000000045" width="55.6" height="56" as="geometry" />
        </mxCell>
        <mxCell id="uEnxF1vp-fD0cjR3ecQY-33" value="&lt;b&gt;&lt;font style=&quot;font-size: 14px;&quot;&gt;Vanguard&lt;/font&gt;&lt;br&gt;&lt;font style=&quot;font-size: 9px;&quot;&gt;Cloudera Hadoop&lt;/font&gt;&lt;br&gt;&lt;/b&gt;" style="text;html=1;strokeColor=none;fillColor=none;align=center;verticalAlign=middle;whiteSpace=wrap;rounded=0;" vertex="1" parent="wmEXvG0R8FhYU_NZQ5m0-1">
          <mxGeometry y="60" width="122.5" height="30" as="geometry" />
        </mxCell>
      </root>
    </mxGraphModel>
  </diagram>
  <diagram id="b58iYc_AeaaaNnOVrTad" name="Page-2">
    <mxGraphModel dx="2284" dy="783" grid="1" gridSize="10" guides="1" tooltips="1" connect="1" arrows="1" fold="1" page="1" pageScale="1" pageWidth="850" pageHeight="1100" math="0" shadow="0">
      <root>
        <mxCell id="0" />
        <mxCell id="1" parent="0" />
        <mxCell id="zP41roMC6v3SDmxVKGO1-1" value="&lt;b&gt;&lt;font style=&quot;font-size: 12px;&quot;&gt;TRIMS&lt;/font&gt;&lt;/b&gt;" style="rounded=1;whiteSpace=wrap;html=1;" vertex="1" parent="1">
          <mxGeometry x="-490" y="170" width="120" height="60" as="geometry" />
        </mxCell>
        <mxCell id="d7jxZyuMYCkjY3bklCve-1" value="&lt;b&gt;&lt;font style=&quot;font-size: 12px;&quot;&gt;FLEXCUBE&lt;/font&gt;&lt;/b&gt;" style="rounded=1;whiteSpace=wrap;html=1;" vertex="1" parent="1">
          <mxGeometry x="-490" y="300" width="120" height="60" as="geometry" />
        </mxCell>
        <mxCell id="d7jxZyuMYCkjY3bklCve-2" value="" style="edgeStyle=entityRelationEdgeStyle;html=1;startArrow=none;startFill=0;endArrow=none;rounded=0;endFill=0;dashed=1;exitX=1;exitY=0.5;exitDx=0;exitDy=0;entryX=0.011;entryY=0.618;entryDx=0;entryDy=0;entryPerimeter=0;" edge="1" parent="1" target="d7jxZyuMYCkjY3bklCve-3" source="d7jxZyuMYCkjY3bklCve-1">
          <mxGeometry width="50" relative="1" as="geometry">
            <mxPoint x="-280" y="275" as="sourcePoint" />
          </mxGeometry>
        </mxCell>
        <mxCell id="d7jxZyuMYCkjY3bklCve-3" value="&lt;b&gt;Data Integration&lt;br&gt;&lt;/b&gt;[Data Transformation Logic]" style="html=1;rounded=1;absoluteArcSize=1;arcSize=80;whiteSpace=wrap;fontSize=11;strokeWidth=2;" vertex="1" parent="1">
          <mxGeometry x="-200" y="190" width="180" height="170" as="geometry" />
        </mxCell>
        <mxCell id="d7jxZyuMYCkjY3bklCve-4" value="" style="edgeStyle=entityRelationEdgeStyle;html=1;endArrow=blockThin;endFill=1;startArrow=none;rounded=0;startFill=0;dashed=1;entryX=0;entryY=0.209;entryDx=0;entryDy=0;entryPerimeter=0;" edge="1" parent="1" source="d7jxZyuMYCkjY3bklCve-3" target="d7jxZyuMYCkjY3bklCve-5">
          <mxGeometry width="180" relative="1" as="geometry">
            <mxPoint x="-20" y="320" as="targetPoint" />
          </mxGeometry>
        </mxCell>
        <mxCell id="d7jxZyuMYCkjY3bklCve-5" value="" style="rounded=1;whiteSpace=wrap;html=1;" vertex="1" parent="1">
          <mxGeometry x="90" y="181" width="410" height="449" as="geometry" />
        </mxCell>
        <mxCell id="d7jxZyuMYCkjY3bklCve-6" value="" style="rounded=1;whiteSpace=wrap;html=1;container=0;" vertex="1" parent="1">
          <mxGeometry x="120" y="230" width="90" height="230" as="geometry" />
        </mxCell>
        <mxCell id="d7jxZyuMYCkjY3bklCve-8" value="" style="rounded=1;whiteSpace=wrap;html=1;container=0;" vertex="1" parent="1">
          <mxGeometry x="267.20000000000005" y="230" width="90" height="180" as="geometry" />
        </mxCell>
        <mxCell id="d7jxZyuMYCkjY3bklCve-9" value="" style="rounded=1;whiteSpace=wrap;html=1;container=0;" vertex="1" parent="1">
          <mxGeometry x="385.6" y="230" width="90" height="130" as="geometry" />
        </mxCell>
        <mxCell id="d7jxZyuMYCkjY3bklCve-10" value="" style="shape=cylinder3;whiteSpace=wrap;html=1;boundedLbl=1;backgroundOutline=1;size=3;" vertex="1" parent="1">
          <mxGeometry x="140" y="250" width="20" height="30" as="geometry" />
        </mxCell>
        <mxCell id="d7jxZyuMYCkjY3bklCve-11" value="" style="shape=cylinder3;whiteSpace=wrap;html=1;boundedLbl=1;backgroundOutline=1;size=3;" vertex="1" parent="1">
          <mxGeometry x="140" y="305" width="20" height="30" as="geometry" />
        </mxCell>
        <mxCell id="d7jxZyuMYCkjY3bklCve-12" value="" style="shape=cylinder3;whiteSpace=wrap;html=1;boundedLbl=1;backgroundOutline=1;size=3;" vertex="1" parent="1">
          <mxGeometry x="140" y="360" width="20" height="30" as="geometry" />
        </mxCell>
        <mxCell id="d7jxZyuMYCkjY3bklCve-13" value="" style="shape=cylinder3;whiteSpace=wrap;html=1;boundedLbl=1;backgroundOutline=1;size=3;" vertex="1" parent="1">
          <mxGeometry x="140" y="410" width="20" height="30" as="geometry" />
        </mxCell>
        <mxCell id="d7jxZyuMYCkjY3bklCve-14" value="" style="shape=table;startSize=30;container=1;collapsible=1;childLayout=tableLayout;fixedRows=1;rowLines=0;fontStyle=1;align=center;resizeLast=1;html=1;whiteSpace=wrap;" vertex="1" collapsed="1" parent="1">
          <mxGeometry x="170" y="250" width="70" height="30" as="geometry">
            <mxRectangle x="630" y="230" width="30" height="30" as="alternateBounds" />
          </mxGeometry>
        </mxCell>
        <mxCell id="d7jxZyuMYCkjY3bklCve-15" value="" style="shape=tableRow;horizontal=0;startSize=0;swimlaneHead=0;swimlaneBody=0;fillColor=none;collapsible=0;dropTarget=0;points=[[0,0.5],[1,0.5]];portConstraint=eastwest;top=0;left=0;right=0;bottom=0;html=1;" vertex="1" visible="0" parent="d7jxZyuMYCkjY3bklCve-14">
          <mxGeometry y="30" width="50" height="30" as="geometry" />
        </mxCell>
        <mxCell id="d7jxZyuMYCkjY3bklCve-16" value="PK,FK1" style="shape=partialRectangle;connectable=0;fillColor=none;top=0;left=0;bottom=0;right=0;fontStyle=1;overflow=hidden;html=1;whiteSpace=wrap;" vertex="1" parent="d7jxZyuMYCkjY3bklCve-15">
          <mxGeometry width="60" height="30" as="geometry">
            <mxRectangle width="60" height="30" as="alternateBounds" />
          </mxGeometry>
        </mxCell>
        <mxCell id="d7jxZyuMYCkjY3bklCve-17" value="Row 1" style="shape=partialRectangle;connectable=0;fillColor=none;top=0;left=0;bottom=0;right=0;align=left;spacingLeft=6;fontStyle=5;overflow=hidden;html=1;whiteSpace=wrap;" vertex="1" parent="d7jxZyuMYCkjY3bklCve-15">
          <mxGeometry x="60" width="-10" height="30" as="geometry">
            <mxRectangle width="-10" height="30" as="alternateBounds" />
          </mxGeometry>
        </mxCell>
        <mxCell id="d7jxZyuMYCkjY3bklCve-18" value="" style="shape=tableRow;horizontal=0;startSize=0;swimlaneHead=0;swimlaneBody=0;fillColor=none;collapsible=0;dropTarget=0;points=[[0,0.5],[1,0.5]];portConstraint=eastwest;top=0;left=0;right=0;bottom=1;html=1;" vertex="1" visible="0" parent="d7jxZyuMYCkjY3bklCve-14">
          <mxGeometry y="60" width="50" height="30" as="geometry" />
        </mxCell>
        <mxCell id="d7jxZyuMYCkjY3bklCve-19" value="PK,FK2" style="shape=partialRectangle;connectable=0;fillColor=none;top=0;left=0;bottom=0;right=0;fontStyle=1;overflow=hidden;html=1;whiteSpace=wrap;" vertex="1" parent="d7jxZyuMYCkjY3bklCve-18">
          <mxGeometry width="60" height="30" as="geometry">
            <mxRectangle width="60" height="30" as="alternateBounds" />
          </mxGeometry>
        </mxCell>
        <mxCell id="d7jxZyuMYCkjY3bklCve-20" value="Row 2" style="shape=partialRectangle;connectable=0;fillColor=none;top=0;left=0;bottom=0;right=0;align=left;spacingLeft=6;fontStyle=5;overflow=hidden;html=1;whiteSpace=wrap;" vertex="1" parent="d7jxZyuMYCkjY3bklCve-18">
          <mxGeometry x="60" width="-10" height="30" as="geometry">
            <mxRectangle width="-10" height="30" as="alternateBounds" />
          </mxGeometry>
        </mxCell>
        <mxCell id="d7jxZyuMYCkjY3bklCve-21" value="" style="shape=tableRow;horizontal=0;startSize=0;swimlaneHead=0;swimlaneBody=0;fillColor=none;collapsible=0;dropTarget=0;points=[[0,0.5],[1,0.5]];portConstraint=eastwest;top=0;left=0;right=0;bottom=0;html=1;" vertex="1" visible="0" parent="d7jxZyuMYCkjY3bklCve-14">
          <mxGeometry y="90" width="50" height="30" as="geometry" />
        </mxCell>
        <mxCell id="d7jxZyuMYCkjY3bklCve-22" value="" style="shape=partialRectangle;connectable=0;fillColor=none;top=0;left=0;bottom=0;right=0;editable=1;overflow=hidden;html=1;whiteSpace=wrap;" vertex="1" parent="d7jxZyuMYCkjY3bklCve-21">
          <mxGeometry width="60" height="30" as="geometry">
            <mxRectangle width="60" height="30" as="alternateBounds" />
          </mxGeometry>
        </mxCell>
        <mxCell id="d7jxZyuMYCkjY3bklCve-23" value="Row 3" style="shape=partialRectangle;connectable=0;fillColor=none;top=0;left=0;bottom=0;right=0;align=left;spacingLeft=6;overflow=hidden;html=1;whiteSpace=wrap;" vertex="1" parent="d7jxZyuMYCkjY3bklCve-21">
          <mxGeometry x="60" width="-10" height="30" as="geometry">
            <mxRectangle width="-10" height="30" as="alternateBounds" />
          </mxGeometry>
        </mxCell>
        <mxCell id="d7jxZyuMYCkjY3bklCve-24" value="" style="shape=tableRow;horizontal=0;startSize=0;swimlaneHead=0;swimlaneBody=0;fillColor=none;collapsible=0;dropTarget=0;points=[[0,0.5],[1,0.5]];portConstraint=eastwest;top=0;left=0;right=0;bottom=0;html=1;" vertex="1" visible="0" parent="d7jxZyuMYCkjY3bklCve-14">
          <mxGeometry y="120" width="50" height="30" as="geometry" />
        </mxCell>
        <mxCell id="d7jxZyuMYCkjY3bklCve-25" value="" style="shape=partialRectangle;connectable=0;fillColor=none;top=0;left=0;bottom=0;right=0;editable=1;overflow=hidden;html=1;whiteSpace=wrap;" vertex="1" parent="d7jxZyuMYCkjY3bklCve-24">
          <mxGeometry width="60" height="30" as="geometry">
            <mxRectangle width="60" height="30" as="alternateBounds" />
          </mxGeometry>
        </mxCell>
        <mxCell id="d7jxZyuMYCkjY3bklCve-26" value="Row 4" style="shape=partialRectangle;connectable=0;fillColor=none;top=0;left=0;bottom=0;right=0;align=left;spacingLeft=6;overflow=hidden;html=1;whiteSpace=wrap;" vertex="1" parent="d7jxZyuMYCkjY3bklCve-24">
          <mxGeometry x="60" width="-10" height="30" as="geometry">
            <mxRectangle width="-10" height="30" as="alternateBounds" />
          </mxGeometry>
        </mxCell>
        <mxCell id="d7jxZyuMYCkjY3bklCve-27" value="" style="shape=table;startSize=30;container=1;collapsible=1;childLayout=tableLayout;fixedRows=1;rowLines=0;fontStyle=1;align=center;resizeLast=1;html=1;whiteSpace=wrap;" vertex="1" collapsed="1" parent="1">
          <mxGeometry x="170" y="305" width="70" height="30" as="geometry">
            <mxRectangle x="630" y="230" width="30" height="30" as="alternateBounds" />
          </mxGeometry>
        </mxCell>
        <mxCell id="d7jxZyuMYCkjY3bklCve-28" value="" style="shape=tableRow;horizontal=0;startSize=0;swimlaneHead=0;swimlaneBody=0;fillColor=none;collapsible=0;dropTarget=0;points=[[0,0.5],[1,0.5]];portConstraint=eastwest;top=0;left=0;right=0;bottom=0;html=1;" vertex="1" visible="0" parent="d7jxZyuMYCkjY3bklCve-27">
          <mxGeometry y="30" width="50" height="30" as="geometry" />
        </mxCell>
        <mxCell id="d7jxZyuMYCkjY3bklCve-29" value="PK,FK1" style="shape=partialRectangle;connectable=0;fillColor=none;top=0;left=0;bottom=0;right=0;fontStyle=1;overflow=hidden;html=1;whiteSpace=wrap;" vertex="1" parent="d7jxZyuMYCkjY3bklCve-28">
          <mxGeometry width="60" height="30" as="geometry">
            <mxRectangle width="60" height="30" as="alternateBounds" />
          </mxGeometry>
        </mxCell>
        <mxCell id="d7jxZyuMYCkjY3bklCve-30" value="Row 1" style="shape=partialRectangle;connectable=0;fillColor=none;top=0;left=0;bottom=0;right=0;align=left;spacingLeft=6;fontStyle=5;overflow=hidden;html=1;whiteSpace=wrap;" vertex="1" parent="d7jxZyuMYCkjY3bklCve-28">
          <mxGeometry x="60" width="-10" height="30" as="geometry">
            <mxRectangle width="-10" height="30" as="alternateBounds" />
          </mxGeometry>
        </mxCell>
        <mxCell id="d7jxZyuMYCkjY3bklCve-31" value="" style="shape=tableRow;horizontal=0;startSize=0;swimlaneHead=0;swimlaneBody=0;fillColor=none;collapsible=0;dropTarget=0;points=[[0,0.5],[1,0.5]];portConstraint=eastwest;top=0;left=0;right=0;bottom=1;html=1;" vertex="1" visible="0" parent="d7jxZyuMYCkjY3bklCve-27">
          <mxGeometry y="60" width="50" height="30" as="geometry" />
        </mxCell>
        <mxCell id="d7jxZyuMYCkjY3bklCve-32" value="PK,FK2" style="shape=partialRectangle;connectable=0;fillColor=none;top=0;left=0;bottom=0;right=0;fontStyle=1;overflow=hidden;html=1;whiteSpace=wrap;" vertex="1" parent="d7jxZyuMYCkjY3bklCve-31">
          <mxGeometry width="60" height="30" as="geometry">
            <mxRectangle width="60" height="30" as="alternateBounds" />
          </mxGeometry>
        </mxCell>
        <mxCell id="d7jxZyuMYCkjY3bklCve-33" value="Row 2" style="shape=partialRectangle;connectable=0;fillColor=none;top=0;left=0;bottom=0;right=0;align=left;spacingLeft=6;fontStyle=5;overflow=hidden;html=1;whiteSpace=wrap;" vertex="1" parent="d7jxZyuMYCkjY3bklCve-31">
          <mxGeometry x="60" width="-10" height="30" as="geometry">
            <mxRectangle width="-10" height="30" as="alternateBounds" />
          </mxGeometry>
        </mxCell>
        <mxCell id="d7jxZyuMYCkjY3bklCve-34" value="" style="shape=tableRow;horizontal=0;startSize=0;swimlaneHead=0;swimlaneBody=0;fillColor=none;collapsible=0;dropTarget=0;points=[[0,0.5],[1,0.5]];portConstraint=eastwest;top=0;left=0;right=0;bottom=0;html=1;" vertex="1" visible="0" parent="d7jxZyuMYCkjY3bklCve-27">
          <mxGeometry y="90" width="50" height="30" as="geometry" />
        </mxCell>
        <mxCell id="d7jxZyuMYCkjY3bklCve-35" value="" style="shape=partialRectangle;connectable=0;fillColor=none;top=0;left=0;bottom=0;right=0;editable=1;overflow=hidden;html=1;whiteSpace=wrap;" vertex="1" parent="d7jxZyuMYCkjY3bklCve-34">
          <mxGeometry width="60" height="30" as="geometry">
            <mxRectangle width="60" height="30" as="alternateBounds" />
          </mxGeometry>
        </mxCell>
        <mxCell id="d7jxZyuMYCkjY3bklCve-36" value="Row 3" style="shape=partialRectangle;connectable=0;fillColor=none;top=0;left=0;bottom=0;right=0;align=left;spacingLeft=6;overflow=hidden;html=1;whiteSpace=wrap;" vertex="1" parent="d7jxZyuMYCkjY3bklCve-34">
          <mxGeometry x="60" width="-10" height="30" as="geometry">
            <mxRectangle width="-10" height="30" as="alternateBounds" />
          </mxGeometry>
        </mxCell>
        <mxCell id="d7jxZyuMYCkjY3bklCve-37" value="" style="shape=tableRow;horizontal=0;startSize=0;swimlaneHead=0;swimlaneBody=0;fillColor=none;collapsible=0;dropTarget=0;points=[[0,0.5],[1,0.5]];portConstraint=eastwest;top=0;left=0;right=0;bottom=0;html=1;" vertex="1" visible="0" parent="d7jxZyuMYCkjY3bklCve-27">
          <mxGeometry y="120" width="50" height="30" as="geometry" />
        </mxCell>
        <mxCell id="d7jxZyuMYCkjY3bklCve-38" value="" style="shape=partialRectangle;connectable=0;fillColor=none;top=0;left=0;bottom=0;right=0;editable=1;overflow=hidden;html=1;whiteSpace=wrap;" vertex="1" parent="d7jxZyuMYCkjY3bklCve-37">
          <mxGeometry width="60" height="30" as="geometry">
            <mxRectangle width="60" height="30" as="alternateBounds" />
          </mxGeometry>
        </mxCell>
        <mxCell id="d7jxZyuMYCkjY3bklCve-39" value="Row 4" style="shape=partialRectangle;connectable=0;fillColor=none;top=0;left=0;bottom=0;right=0;align=left;spacingLeft=6;overflow=hidden;html=1;whiteSpace=wrap;" vertex="1" parent="d7jxZyuMYCkjY3bklCve-37">
          <mxGeometry x="60" width="-10" height="30" as="geometry">
            <mxRectangle width="-10" height="30" as="alternateBounds" />
          </mxGeometry>
        </mxCell>
        <mxCell id="d7jxZyuMYCkjY3bklCve-40" value="Staging" style="text;html=1;strokeColor=none;fillColor=none;align=center;verticalAlign=middle;whiteSpace=wrap;rounded=0;" vertex="1" parent="1">
          <mxGeometry x="130" y="470" width="60" height="30" as="geometry" />
        </mxCell>
        <mxCell id="d7jxZyuMYCkjY3bklCve-41" value="Conformance" style="text;html=1;strokeColor=none;fillColor=none;align=center;verticalAlign=middle;whiteSpace=wrap;rounded=0;" vertex="1" parent="1">
          <mxGeometry x="280.00000000000006" y="420" width="60" height="30" as="geometry" />
        </mxCell>
        <mxCell id="d7jxZyuMYCkjY3bklCve-42" value="Reporting" style="text;html=1;strokeColor=none;fillColor=none;align=center;verticalAlign=middle;whiteSpace=wrap;rounded=0;" vertex="1" parent="1">
          <mxGeometry x="400.6" y="370" width="60" height="30" as="geometry" />
        </mxCell>
        <mxCell id="d7jxZyuMYCkjY3bklCve-43" value="&lt;font style=&quot;font-size: 10px;&quot;&gt;Table&lt;/font&gt;" style="shape=table;startSize=30;container=1;collapsible=1;childLayout=tableLayout;fixedRows=1;rowLines=0;fontStyle=1;align=center;resizeLast=1;html=1;whiteSpace=wrap;" vertex="1" collapsed="1" parent="1">
          <mxGeometry x="330" y="245" width="40" height="30" as="geometry">
            <mxRectangle x="630" y="230" width="30" height="30" as="alternateBounds" />
          </mxGeometry>
        </mxCell>
        <mxCell id="d7jxZyuMYCkjY3bklCve-44" value="" style="shape=tableRow;horizontal=0;startSize=0;swimlaneHead=0;swimlaneBody=0;fillColor=none;collapsible=0;dropTarget=0;points=[[0,0.5],[1,0.5]];portConstraint=eastwest;top=0;left=0;right=0;bottom=0;html=1;" vertex="1" visible="0" parent="d7jxZyuMYCkjY3bklCve-43">
          <mxGeometry y="30" width="50" height="30" as="geometry" />
        </mxCell>
        <mxCell id="d7jxZyuMYCkjY3bklCve-45" value="PK,FK1" style="shape=partialRectangle;connectable=0;fillColor=none;top=0;left=0;bottom=0;right=0;fontStyle=1;overflow=hidden;html=1;whiteSpace=wrap;" vertex="1" parent="d7jxZyuMYCkjY3bklCve-44">
          <mxGeometry width="60" height="30" as="geometry">
            <mxRectangle width="60" height="30" as="alternateBounds" />
          </mxGeometry>
        </mxCell>
        <mxCell id="d7jxZyuMYCkjY3bklCve-46" value="Row 1" style="shape=partialRectangle;connectable=0;fillColor=none;top=0;left=0;bottom=0;right=0;align=left;spacingLeft=6;fontStyle=5;overflow=hidden;html=1;whiteSpace=wrap;" vertex="1" parent="d7jxZyuMYCkjY3bklCve-44">
          <mxGeometry x="60" width="-10" height="30" as="geometry">
            <mxRectangle width="-10" height="30" as="alternateBounds" />
          </mxGeometry>
        </mxCell>
        <mxCell id="d7jxZyuMYCkjY3bklCve-47" value="" style="shape=tableRow;horizontal=0;startSize=0;swimlaneHead=0;swimlaneBody=0;fillColor=none;collapsible=0;dropTarget=0;points=[[0,0.5],[1,0.5]];portConstraint=eastwest;top=0;left=0;right=0;bottom=1;html=1;" vertex="1" visible="0" parent="d7jxZyuMYCkjY3bklCve-43">
          <mxGeometry y="60" width="50" height="30" as="geometry" />
        </mxCell>
        <mxCell id="d7jxZyuMYCkjY3bklCve-48" value="PK,FK2" style="shape=partialRectangle;connectable=0;fillColor=none;top=0;left=0;bottom=0;right=0;fontStyle=1;overflow=hidden;html=1;whiteSpace=wrap;" vertex="1" parent="d7jxZyuMYCkjY3bklCve-47">
          <mxGeometry width="60" height="30" as="geometry">
            <mxRectangle width="60" height="30" as="alternateBounds" />
          </mxGeometry>
        </mxCell>
        <mxCell id="d7jxZyuMYCkjY3bklCve-49" value="Row 2" style="shape=partialRectangle;connectable=0;fillColor=none;top=0;left=0;bottom=0;right=0;align=left;spacingLeft=6;fontStyle=5;overflow=hidden;html=1;whiteSpace=wrap;" vertex="1" parent="d7jxZyuMYCkjY3bklCve-47">
          <mxGeometry x="60" width="-10" height="30" as="geometry">
            <mxRectangle width="-10" height="30" as="alternateBounds" />
          </mxGeometry>
        </mxCell>
        <mxCell id="d7jxZyuMYCkjY3bklCve-50" value="" style="shape=tableRow;horizontal=0;startSize=0;swimlaneHead=0;swimlaneBody=0;fillColor=none;collapsible=0;dropTarget=0;points=[[0,0.5],[1,0.5]];portConstraint=eastwest;top=0;left=0;right=0;bottom=0;html=1;" vertex="1" visible="0" parent="d7jxZyuMYCkjY3bklCve-43">
          <mxGeometry y="90" width="50" height="30" as="geometry" />
        </mxCell>
        <mxCell id="d7jxZyuMYCkjY3bklCve-51" value="" style="shape=partialRectangle;connectable=0;fillColor=none;top=0;left=0;bottom=0;right=0;editable=1;overflow=hidden;html=1;whiteSpace=wrap;" vertex="1" parent="d7jxZyuMYCkjY3bklCve-50">
          <mxGeometry width="60" height="30" as="geometry">
            <mxRectangle width="60" height="30" as="alternateBounds" />
          </mxGeometry>
        </mxCell>
        <mxCell id="d7jxZyuMYCkjY3bklCve-52" value="Row 3" style="shape=partialRectangle;connectable=0;fillColor=none;top=0;left=0;bottom=0;right=0;align=left;spacingLeft=6;overflow=hidden;html=1;whiteSpace=wrap;" vertex="1" parent="d7jxZyuMYCkjY3bklCve-50">
          <mxGeometry x="60" width="-10" height="30" as="geometry">
            <mxRectangle width="-10" height="30" as="alternateBounds" />
          </mxGeometry>
        </mxCell>
        <mxCell id="d7jxZyuMYCkjY3bklCve-53" value="" style="shape=tableRow;horizontal=0;startSize=0;swimlaneHead=0;swimlaneBody=0;fillColor=none;collapsible=0;dropTarget=0;points=[[0,0.5],[1,0.5]];portConstraint=eastwest;top=0;left=0;right=0;bottom=0;html=1;" vertex="1" visible="0" parent="d7jxZyuMYCkjY3bklCve-43">
          <mxGeometry y="120" width="50" height="30" as="geometry" />
        </mxCell>
        <mxCell id="d7jxZyuMYCkjY3bklCve-54" value="" style="shape=partialRectangle;connectable=0;fillColor=none;top=0;left=0;bottom=0;right=0;editable=1;overflow=hidden;html=1;whiteSpace=wrap;" vertex="1" parent="d7jxZyuMYCkjY3bklCve-53">
          <mxGeometry width="60" height="30" as="geometry">
            <mxRectangle width="60" height="30" as="alternateBounds" />
          </mxGeometry>
        </mxCell>
        <mxCell id="d7jxZyuMYCkjY3bklCve-55" value="Row 4" style="shape=partialRectangle;connectable=0;fillColor=none;top=0;left=0;bottom=0;right=0;align=left;spacingLeft=6;overflow=hidden;html=1;whiteSpace=wrap;" vertex="1" parent="d7jxZyuMYCkjY3bklCve-53">
          <mxGeometry x="60" width="-10" height="30" as="geometry">
            <mxRectangle width="-10" height="30" as="alternateBounds" />
          </mxGeometry>
        </mxCell>
        <mxCell id="d7jxZyuMYCkjY3bklCve-56" value="&lt;font style=&quot;font-size: 10px;&quot;&gt;Table&lt;/font&gt;" style="shape=table;startSize=30;container=1;collapsible=1;childLayout=tableLayout;fixedRows=1;rowLines=0;fontStyle=1;align=center;resizeLast=1;html=1;whiteSpace=wrap;" vertex="1" collapsed="1" parent="1">
          <mxGeometry x="450" y="240" width="40" height="30" as="geometry">
            <mxRectangle x="630" y="230" width="30" height="30" as="alternateBounds" />
          </mxGeometry>
        </mxCell>
        <mxCell id="d7jxZyuMYCkjY3bklCve-57" value="" style="shape=tableRow;horizontal=0;startSize=0;swimlaneHead=0;swimlaneBody=0;fillColor=none;collapsible=0;dropTarget=0;points=[[0,0.5],[1,0.5]];portConstraint=eastwest;top=0;left=0;right=0;bottom=0;html=1;" vertex="1" visible="0" parent="d7jxZyuMYCkjY3bklCve-56">
          <mxGeometry y="30" width="50" height="30" as="geometry" />
        </mxCell>
        <mxCell id="d7jxZyuMYCkjY3bklCve-58" value="PK,FK1" style="shape=partialRectangle;connectable=0;fillColor=none;top=0;left=0;bottom=0;right=0;fontStyle=1;overflow=hidden;html=1;whiteSpace=wrap;" vertex="1" parent="d7jxZyuMYCkjY3bklCve-57">
          <mxGeometry width="60" height="30" as="geometry">
            <mxRectangle width="60" height="30" as="alternateBounds" />
          </mxGeometry>
        </mxCell>
        <mxCell id="d7jxZyuMYCkjY3bklCve-59" value="Row 1" style="shape=partialRectangle;connectable=0;fillColor=none;top=0;left=0;bottom=0;right=0;align=left;spacingLeft=6;fontStyle=5;overflow=hidden;html=1;whiteSpace=wrap;" vertex="1" parent="d7jxZyuMYCkjY3bklCve-57">
          <mxGeometry x="60" width="-10" height="30" as="geometry">
            <mxRectangle width="-10" height="30" as="alternateBounds" />
          </mxGeometry>
        </mxCell>
        <mxCell id="d7jxZyuMYCkjY3bklCve-60" value="" style="shape=tableRow;horizontal=0;startSize=0;swimlaneHead=0;swimlaneBody=0;fillColor=none;collapsible=0;dropTarget=0;points=[[0,0.5],[1,0.5]];portConstraint=eastwest;top=0;left=0;right=0;bottom=1;html=1;" vertex="1" visible="0" parent="d7jxZyuMYCkjY3bklCve-56">
          <mxGeometry y="60" width="50" height="30" as="geometry" />
        </mxCell>
        <mxCell id="d7jxZyuMYCkjY3bklCve-61" value="PK,FK2" style="shape=partialRectangle;connectable=0;fillColor=none;top=0;left=0;bottom=0;right=0;fontStyle=1;overflow=hidden;html=1;whiteSpace=wrap;" vertex="1" parent="d7jxZyuMYCkjY3bklCve-60">
          <mxGeometry width="60" height="30" as="geometry">
            <mxRectangle width="60" height="30" as="alternateBounds" />
          </mxGeometry>
        </mxCell>
        <mxCell id="d7jxZyuMYCkjY3bklCve-62" value="Row 2" style="shape=partialRectangle;connectable=0;fillColor=none;top=0;left=0;bottom=0;right=0;align=left;spacingLeft=6;fontStyle=5;overflow=hidden;html=1;whiteSpace=wrap;" vertex="1" parent="d7jxZyuMYCkjY3bklCve-60">
          <mxGeometry x="60" width="-10" height="30" as="geometry">
            <mxRectangle width="-10" height="30" as="alternateBounds" />
          </mxGeometry>
        </mxCell>
        <mxCell id="d7jxZyuMYCkjY3bklCve-63" value="" style="shape=tableRow;horizontal=0;startSize=0;swimlaneHead=0;swimlaneBody=0;fillColor=none;collapsible=0;dropTarget=0;points=[[0,0.5],[1,0.5]];portConstraint=eastwest;top=0;left=0;right=0;bottom=0;html=1;" vertex="1" visible="0" parent="d7jxZyuMYCkjY3bklCve-56">
          <mxGeometry y="90" width="50" height="30" as="geometry" />
        </mxCell>
        <mxCell id="d7jxZyuMYCkjY3bklCve-64" value="" style="shape=partialRectangle;connectable=0;fillColor=none;top=0;left=0;bottom=0;right=0;editable=1;overflow=hidden;html=1;whiteSpace=wrap;" vertex="1" parent="d7jxZyuMYCkjY3bklCve-63">
          <mxGeometry width="60" height="30" as="geometry">
            <mxRectangle width="60" height="30" as="alternateBounds" />
          </mxGeometry>
        </mxCell>
        <mxCell id="d7jxZyuMYCkjY3bklCve-65" value="Row 3" style="shape=partialRectangle;connectable=0;fillColor=none;top=0;left=0;bottom=0;right=0;align=left;spacingLeft=6;overflow=hidden;html=1;whiteSpace=wrap;" vertex="1" parent="d7jxZyuMYCkjY3bklCve-63">
          <mxGeometry x="60" width="-10" height="30" as="geometry">
            <mxRectangle width="-10" height="30" as="alternateBounds" />
          </mxGeometry>
        </mxCell>
        <mxCell id="d7jxZyuMYCkjY3bklCve-66" value="" style="shape=tableRow;horizontal=0;startSize=0;swimlaneHead=0;swimlaneBody=0;fillColor=none;collapsible=0;dropTarget=0;points=[[0,0.5],[1,0.5]];portConstraint=eastwest;top=0;left=0;right=0;bottom=0;html=1;" vertex="1" visible="0" parent="d7jxZyuMYCkjY3bklCve-56">
          <mxGeometry y="120" width="50" height="30" as="geometry" />
        </mxCell>
        <mxCell id="d7jxZyuMYCkjY3bklCve-67" value="" style="shape=partialRectangle;connectable=0;fillColor=none;top=0;left=0;bottom=0;right=0;editable=1;overflow=hidden;html=1;whiteSpace=wrap;" vertex="1" parent="d7jxZyuMYCkjY3bklCve-66">
          <mxGeometry width="60" height="30" as="geometry">
            <mxRectangle width="60" height="30" as="alternateBounds" />
          </mxGeometry>
        </mxCell>
        <mxCell id="d7jxZyuMYCkjY3bklCve-68" value="Row 4" style="shape=partialRectangle;connectable=0;fillColor=none;top=0;left=0;bottom=0;right=0;align=left;spacingLeft=6;overflow=hidden;html=1;whiteSpace=wrap;" vertex="1" parent="d7jxZyuMYCkjY3bklCve-66">
          <mxGeometry x="60" width="-10" height="30" as="geometry">
            <mxRectangle width="-10" height="30" as="alternateBounds" />
          </mxGeometry>
        </mxCell>
        <mxCell id="d7jxZyuMYCkjY3bklCve-69" value="" style="shape=cylinder3;whiteSpace=wrap;html=1;boundedLbl=1;backgroundOutline=1;size=3;" vertex="1" parent="1">
          <mxGeometry x="290" y="245" width="20" height="30" as="geometry" />
        </mxCell>
        <mxCell id="d7jxZyuMYCkjY3bklCve-70" value="" style="shape=cylinder3;whiteSpace=wrap;html=1;boundedLbl=1;backgroundOutline=1;size=3;" vertex="1" parent="1">
          <mxGeometry x="410" y="245" width="20" height="30" as="geometry" />
        </mxCell>
        <mxCell id="d7jxZyuMYCkjY3bklCve-73" value="" style="shape=cylinder3;whiteSpace=wrap;html=1;boundedLbl=1;backgroundOutline=1;size=3;" vertex="1" parent="1">
          <mxGeometry x="290" y="305" width="20" height="30" as="geometry" />
        </mxCell>
        <mxCell id="d7jxZyuMYCkjY3bklCve-74" value="" style="shape=cylinder3;whiteSpace=wrap;html=1;boundedLbl=1;backgroundOutline=1;size=3;" vertex="1" parent="1">
          <mxGeometry x="290" y="360" width="20" height="30" as="geometry" />
        </mxCell>
        <mxCell id="d7jxZyuMYCkjY3bklCve-75" value="" style="shape=cylinder3;whiteSpace=wrap;html=1;boundedLbl=1;backgroundOutline=1;size=3;" vertex="1" parent="1">
          <mxGeometry x="410" y="305" width="20" height="30" as="geometry" />
        </mxCell>
        <mxCell id="d7jxZyuMYCkjY3bklCve-76" value="" style="rounded=1;whiteSpace=wrap;html=1;" vertex="1" parent="1">
          <mxGeometry x="700" y="430" width="90" height="80" as="geometry" />
        </mxCell>
        <mxCell id="d7jxZyuMYCkjY3bklCve-77" value="" style="group" vertex="1" connectable="0" parent="1">
          <mxGeometry x="700" y="214" width="90" height="70" as="geometry" />
        </mxCell>
        <mxCell id="d7jxZyuMYCkjY3bklCve-78" value="" style="rounded=1;whiteSpace=wrap;html=1;" vertex="1" parent="d7jxZyuMYCkjY3bklCve-77">
          <mxGeometry width="90" height="70" as="geometry" />
        </mxCell>
        <mxCell id="d7jxZyuMYCkjY3bklCve-79" value="" style="sketch=0;pointerEvents=1;shadow=0;dashed=0;html=1;strokeColor=none;fillColor=#505050;labelPosition=center;verticalLabelPosition=bottom;verticalAlign=top;outlineConnect=0;align=center;shape=mxgraph.office.servers.sharepoint_server;" vertex="1" parent="d7jxZyuMYCkjY3bklCve-77">
          <mxGeometry x="20" y="5" width="50" height="50" as="geometry" />
        </mxCell>
        <mxCell id="d7jxZyuMYCkjY3bklCve-80" value="" style="group" vertex="1" connectable="0" parent="1">
          <mxGeometry x="700" y="313" width="90" height="70" as="geometry" />
        </mxCell>
        <mxCell id="d7jxZyuMYCkjY3bklCve-81" value="" style="rounded=1;whiteSpace=wrap;html=1;" vertex="1" parent="d7jxZyuMYCkjY3bklCve-80">
          <mxGeometry y="10" width="90" height="70" as="geometry" />
        </mxCell>
        <mxCell id="d7jxZyuMYCkjY3bklCve-82" value="" style="sketch=0;pointerEvents=1;shadow=0;dashed=0;html=1;strokeColor=none;fillColor=#434445;aspect=fixed;labelPosition=center;verticalLabelPosition=bottom;verticalAlign=top;align=center;outlineConnect=0;shape=mxgraph.vvd.nsx_dashboard;" vertex="1" parent="d7jxZyuMYCkjY3bklCve-80">
          <mxGeometry x="20" y="21.75" width="50" height="46.5" as="geometry" />
        </mxCell>
        <mxCell id="d7jxZyuMYCkjY3bklCve-83" value="" style="endArrow=classic;html=1;rounded=0;entryX=0;entryY=0.5;entryDx=0;entryDy=0;" edge="1" parent="1" target="d7jxZyuMYCkjY3bklCve-78">
          <mxGeometry relative="1" as="geometry">
            <mxPoint x="500" y="250" as="sourcePoint" />
            <mxPoint x="600" y="250" as="targetPoint" />
          </mxGeometry>
        </mxCell>
        <mxCell id="d7jxZyuMYCkjY3bklCve-84" value="Feed Files" style="edgeLabel;resizable=0;html=1;align=center;verticalAlign=middle;" connectable="0" vertex="1" parent="d7jxZyuMYCkjY3bklCve-83">
          <mxGeometry relative="1" as="geometry" />
        </mxCell>
        <mxCell id="d7jxZyuMYCkjY3bklCve-85" value="" style="endArrow=classic;html=1;rounded=0;entryX=0;entryY=0.5;entryDx=0;entryDy=0;" edge="1" parent="1" target="d7jxZyuMYCkjY3bklCve-81">
          <mxGeometry relative="1" as="geometry">
            <mxPoint x="500" y="360" as="sourcePoint" />
            <mxPoint x="700" y="365" as="targetPoint" />
          </mxGeometry>
        </mxCell>
        <mxCell id="d7jxZyuMYCkjY3bklCve-86" value="Connection" style="edgeLabel;resizable=0;html=1;align=center;verticalAlign=middle;" connectable="0" vertex="1" parent="d7jxZyuMYCkjY3bklCve-85">
          <mxGeometry relative="1" as="geometry" />
        </mxCell>
        <mxCell id="d7jxZyuMYCkjY3bklCve-87" value="" style="endArrow=classic;html=1;rounded=0;entryX=0;entryY=0.5;entryDx=0;entryDy=0;" edge="1" parent="1" target="d7jxZyuMYCkjY3bklCve-76">
          <mxGeometry relative="1" as="geometry">
            <mxPoint x="500" y="470" as="sourcePoint" />
            <mxPoint x="600" y="470" as="targetPoint" />
          </mxGeometry>
        </mxCell>
        <mxCell id="d7jxZyuMYCkjY3bklCve-88" value="Feed Files" style="edgeLabel;resizable=0;html=1;align=center;verticalAlign=middle;" connectable="0" vertex="1" parent="d7jxZyuMYCkjY3bklCve-87">
          <mxGeometry relative="1" as="geometry" />
        </mxCell>
        <mxCell id="d7jxZyuMYCkjY3bklCve-89" value="Sharepoint" style="text;html=1;strokeColor=none;fillColor=none;align=center;verticalAlign=middle;whiteSpace=wrap;rounded=0;" vertex="1" parent="1">
          <mxGeometry x="715" y="284" width="60" height="30" as="geometry" />
        </mxCell>
        <mxCell id="d7jxZyuMYCkjY3bklCve-90" value="Dashboard/Reporting" style="text;html=1;strokeColor=none;fillColor=none;align=center;verticalAlign=middle;whiteSpace=wrap;rounded=0;" vertex="1" parent="1">
          <mxGeometry x="715" y="390" width="60" height="30" as="geometry" />
        </mxCell>
        <mxCell id="d7jxZyuMYCkjY3bklCve-91" value="" style="shape=image;html=1;verticalAlign=top;verticalLabelPosition=bottom;labelBackgroundColor=#ffffff;imageAspect=0;aspect=fixed;image=https://cdn2.iconfinder.com/data/icons/simple-files/128/CSV.png" vertex="1" parent="1">
          <mxGeometry x="710" y="440" width="30" height="30" as="geometry" />
        </mxCell>
        <mxCell id="d7jxZyuMYCkjY3bklCve-92" value="" style="shape=image;html=1;verticalAlign=top;verticalLabelPosition=bottom;labelBackgroundColor=#ffffff;imageAspect=0;aspect=fixed;image=https://cdn2.iconfinder.com/data/icons/simple-files/128/CSV.png" vertex="1" parent="1">
          <mxGeometry x="745" y="440" width="30" height="30" as="geometry" />
        </mxCell>
        <mxCell id="d7jxZyuMYCkjY3bklCve-93" value="" style="shape=image;html=1;verticalAlign=top;verticalLabelPosition=bottom;labelBackgroundColor=#ffffff;imageAspect=0;aspect=fixed;image=https://cdn2.iconfinder.com/data/icons/simple-files/128/CSV.png" vertex="1" parent="1">
          <mxGeometry x="710" y="473" width="30" height="30" as="geometry" />
        </mxCell>
        <mxCell id="d7jxZyuMYCkjY3bklCve-94" value="" style="shape=image;html=1;verticalAlign=top;verticalLabelPosition=bottom;labelBackgroundColor=#ffffff;imageAspect=0;aspect=fixed;image=https://cdn2.iconfinder.com/data/icons/simple-files/128/CSV.png" vertex="1" parent="1">
          <mxGeometry x="746" y="473" width="30" height="30" as="geometry" />
        </mxCell>
        <mxCell id="d7jxZyuMYCkjY3bklCve-95" value="Feed to Downstream Applications" style="text;html=1;strokeColor=none;fillColor=none;align=center;verticalAlign=middle;whiteSpace=wrap;rounded=0;" vertex="1" parent="1">
          <mxGeometry x="690" y="520" width="110" height="30" as="geometry" />
        </mxCell>
        <mxCell id="d7jxZyuMYCkjY3bklCve-96" value="&lt;font style=&quot;font-size: 10px;&quot;&gt;Table&lt;/font&gt;" style="shape=table;startSize=30;container=1;collapsible=1;childLayout=tableLayout;fixedRows=1;rowLines=0;fontStyle=1;align=center;resizeLast=1;html=1;whiteSpace=wrap;" vertex="1" collapsed="1" parent="1">
          <mxGeometry x="450" y="305" width="40" height="30" as="geometry">
            <mxRectangle x="630" y="230" width="30" height="30" as="alternateBounds" />
          </mxGeometry>
        </mxCell>
        <mxCell id="d7jxZyuMYCkjY3bklCve-97" value="" style="shape=tableRow;horizontal=0;startSize=0;swimlaneHead=0;swimlaneBody=0;fillColor=none;collapsible=0;dropTarget=0;points=[[0,0.5],[1,0.5]];portConstraint=eastwest;top=0;left=0;right=0;bottom=0;html=1;" vertex="1" visible="0" parent="d7jxZyuMYCkjY3bklCve-96">
          <mxGeometry y="30" width="50" height="30" as="geometry" />
        </mxCell>
        <mxCell id="d7jxZyuMYCkjY3bklCve-98" value="PK,FK1" style="shape=partialRectangle;connectable=0;fillColor=none;top=0;left=0;bottom=0;right=0;fontStyle=1;overflow=hidden;html=1;whiteSpace=wrap;" vertex="1" parent="d7jxZyuMYCkjY3bklCve-97">
          <mxGeometry width="60" height="30" as="geometry">
            <mxRectangle width="60" height="30" as="alternateBounds" />
          </mxGeometry>
        </mxCell>
        <mxCell id="d7jxZyuMYCkjY3bklCve-99" value="Row 1" style="shape=partialRectangle;connectable=0;fillColor=none;top=0;left=0;bottom=0;right=0;align=left;spacingLeft=6;fontStyle=5;overflow=hidden;html=1;whiteSpace=wrap;" vertex="1" parent="d7jxZyuMYCkjY3bklCve-97">
          <mxGeometry x="60" width="-10" height="30" as="geometry">
            <mxRectangle width="-10" height="30" as="alternateBounds" />
          </mxGeometry>
        </mxCell>
        <mxCell id="d7jxZyuMYCkjY3bklCve-100" value="" style="shape=tableRow;horizontal=0;startSize=0;swimlaneHead=0;swimlaneBody=0;fillColor=none;collapsible=0;dropTarget=0;points=[[0,0.5],[1,0.5]];portConstraint=eastwest;top=0;left=0;right=0;bottom=1;html=1;" vertex="1" visible="0" parent="d7jxZyuMYCkjY3bklCve-96">
          <mxGeometry y="60" width="50" height="30" as="geometry" />
        </mxCell>
        <mxCell id="d7jxZyuMYCkjY3bklCve-101" value="PK,FK2" style="shape=partialRectangle;connectable=0;fillColor=none;top=0;left=0;bottom=0;right=0;fontStyle=1;overflow=hidden;html=1;whiteSpace=wrap;" vertex="1" parent="d7jxZyuMYCkjY3bklCve-100">
          <mxGeometry width="60" height="30" as="geometry">
            <mxRectangle width="60" height="30" as="alternateBounds" />
          </mxGeometry>
        </mxCell>
        <mxCell id="d7jxZyuMYCkjY3bklCve-102" value="Row 2" style="shape=partialRectangle;connectable=0;fillColor=none;top=0;left=0;bottom=0;right=0;align=left;spacingLeft=6;fontStyle=5;overflow=hidden;html=1;whiteSpace=wrap;" vertex="1" parent="d7jxZyuMYCkjY3bklCve-100">
          <mxGeometry x="60" width="-10" height="30" as="geometry">
            <mxRectangle width="-10" height="30" as="alternateBounds" />
          </mxGeometry>
        </mxCell>
        <mxCell id="d7jxZyuMYCkjY3bklCve-103" value="" style="shape=tableRow;horizontal=0;startSize=0;swimlaneHead=0;swimlaneBody=0;fillColor=none;collapsible=0;dropTarget=0;points=[[0,0.5],[1,0.5]];portConstraint=eastwest;top=0;left=0;right=0;bottom=0;html=1;" vertex="1" visible="0" parent="d7jxZyuMYCkjY3bklCve-96">
          <mxGeometry y="90" width="50" height="30" as="geometry" />
        </mxCell>
        <mxCell id="d7jxZyuMYCkjY3bklCve-104" value="" style="shape=partialRectangle;connectable=0;fillColor=none;top=0;left=0;bottom=0;right=0;editable=1;overflow=hidden;html=1;whiteSpace=wrap;" vertex="1" parent="d7jxZyuMYCkjY3bklCve-103">
          <mxGeometry width="60" height="30" as="geometry">
            <mxRectangle width="60" height="30" as="alternateBounds" />
          </mxGeometry>
        </mxCell>
        <mxCell id="d7jxZyuMYCkjY3bklCve-105" value="Row 3" style="shape=partialRectangle;connectable=0;fillColor=none;top=0;left=0;bottom=0;right=0;align=left;spacingLeft=6;overflow=hidden;html=1;whiteSpace=wrap;" vertex="1" parent="d7jxZyuMYCkjY3bklCve-103">
          <mxGeometry x="60" width="-10" height="30" as="geometry">
            <mxRectangle width="-10" height="30" as="alternateBounds" />
          </mxGeometry>
        </mxCell>
        <mxCell id="d7jxZyuMYCkjY3bklCve-106" value="" style="shape=tableRow;horizontal=0;startSize=0;swimlaneHead=0;swimlaneBody=0;fillColor=none;collapsible=0;dropTarget=0;points=[[0,0.5],[1,0.5]];portConstraint=eastwest;top=0;left=0;right=0;bottom=0;html=1;" vertex="1" visible="0" parent="d7jxZyuMYCkjY3bklCve-96">
          <mxGeometry y="120" width="50" height="30" as="geometry" />
        </mxCell>
        <mxCell id="d7jxZyuMYCkjY3bklCve-107" value="" style="shape=partialRectangle;connectable=0;fillColor=none;top=0;left=0;bottom=0;right=0;editable=1;overflow=hidden;html=1;whiteSpace=wrap;" vertex="1" parent="d7jxZyuMYCkjY3bklCve-106">
          <mxGeometry width="60" height="30" as="geometry">
            <mxRectangle width="60" height="30" as="alternateBounds" />
          </mxGeometry>
        </mxCell>
        <mxCell id="d7jxZyuMYCkjY3bklCve-108" value="Row 4" style="shape=partialRectangle;connectable=0;fillColor=none;top=0;left=0;bottom=0;right=0;align=left;spacingLeft=6;overflow=hidden;html=1;whiteSpace=wrap;" vertex="1" parent="d7jxZyuMYCkjY3bklCve-106">
          <mxGeometry x="60" width="-10" height="30" as="geometry">
            <mxRectangle width="-10" height="30" as="alternateBounds" />
          </mxGeometry>
        </mxCell>
        <mxCell id="d7jxZyuMYCkjY3bklCve-109" value="" style="endArrow=none;dashed=1;html=1;dashPattern=1 3;strokeWidth=2;rounded=0;exitX=0.982;exitY=0.838;exitDx=0;exitDy=0;exitPerimeter=0;" edge="1" parent="1" source="d7jxZyuMYCkjY3bklCve-9">
          <mxGeometry width="50" height="50" relative="1" as="geometry">
            <mxPoint x="530" y="433" as="sourcePoint" />
            <mxPoint x="500" y="360" as="targetPoint" />
          </mxGeometry>
        </mxCell>
        <mxCell id="d7jxZyuMYCkjY3bklCve-110" value="2" style="text;html=1;strokeColor=none;fillColor=none;align=center;verticalAlign=middle;whiteSpace=wrap;rounded=0;" vertex="1" parent="1">
          <mxGeometry x="-550" y="305" width="60" height="30" as="geometry" />
        </mxCell>
        <mxCell id="d7jxZyuMYCkjY3bklCve-111" value="&lt;font style=&quot;font-size: 12px;&quot;&gt;1&lt;/font&gt;" style="text;html=1;strokeColor=none;fillColor=none;align=center;verticalAlign=middle;whiteSpace=wrap;rounded=0;" vertex="1" parent="1">
          <mxGeometry x="-550" y="181" width="60" height="30" as="geometry" />
        </mxCell>
        <mxCell id="d7jxZyuMYCkjY3bklCve-112" value="3" style="text;html=1;strokeColor=none;fillColor=none;align=center;verticalAlign=middle;whiteSpace=wrap;rounded=0;" vertex="1" parent="1">
          <mxGeometry x="-230" y="350" width="60" height="30" as="geometry" />
        </mxCell>
        <mxCell id="d7jxZyuMYCkjY3bklCve-114" value="5" style="text;html=1;strokeColor=none;fillColor=none;align=center;verticalAlign=middle;whiteSpace=wrap;rounded=0;" vertex="1" parent="1">
          <mxGeometry x="126.5" y="190" width="60" height="30" as="geometry" />
        </mxCell>
        <mxCell id="d7jxZyuMYCkjY3bklCve-115" value="6" style="text;html=1;strokeColor=none;fillColor=none;align=center;verticalAlign=middle;whiteSpace=wrap;rounded=0;" vertex="1" parent="1">
          <mxGeometry x="600" y="184" width="60" height="30" as="geometry" />
        </mxCell>
        <mxCell id="d7jxZyuMYCkjY3bklCve-116" value="&lt;h1&gt;Data Integration: TRIMS Product Processor To Vanguard&lt;/h1&gt;" style="text;html=1;strokeColor=none;fillColor=none;spacing=5;spacingTop=-20;whiteSpace=wrap;overflow=hidden;rounded=0;" vertex="1" parent="1">
          <mxGeometry x="-194.4" y="20" width="670" height="50" as="geometry" />
        </mxCell>
        <mxCell id="d7jxZyuMYCkjY3bklCve-118" value="&lt;font style=&quot;font-size: 10px;&quot;&gt;Near Real Time Kafka Stream&lt;/font&gt;" style="sketch=0;points=[[0,0,0],[0.25,0,0],[0.5,0,0],[0.75,0,0],[1,0,0],[0,1,0],[0.25,1,0],[0.5,1,0],[0.75,1,0],[1,1,0],[0,0.25,0],[0,0.5,0],[0,0.75,0],[1,0.25,0],[1,0.5,0],[1,0.75,0]];outlineConnect=0;fontColor=#232F3E;fillColor=#000099;strokeColor=#ffffff;dashed=0;verticalLabelPosition=bottom;verticalAlign=top;align=center;html=1;fontSize=12;fontStyle=0;aspect=fixed;shape=mxgraph.aws4.resourceIcon;resIcon=mxgraph.aws4.managed_streaming_for_kafka;opacity=60;" vertex="1" parent="1">
          <mxGeometry x="-125" y="200" width="30" height="30" as="geometry" />
        </mxCell>
        <mxCell id="d7jxZyuMYCkjY3bklCve-128" value="" style="group;strokeWidth=2;strokeColor=none;" vertex="1" connectable="0" parent="1">
          <mxGeometry x="-200" y="450" width="180" height="130" as="geometry" />
        </mxCell>
        <mxCell id="d7jxZyuMYCkjY3bklCve-121" value="" style="rounded=1;whiteSpace=wrap;html=1;fillStyle=hatch;gradientColor=none;fillColor=none;opacity=70;gradientDirection=east;strokeColor=#000033;" vertex="1" parent="d7jxZyuMYCkjY3bklCve-128">
          <mxGeometry y="9.09" width="180" height="120.91" as="geometry" />
        </mxCell>
        <mxCell id="d7jxZyuMYCkjY3bklCve-122" value="" style="html=1;verticalLabelPosition=bottom;align=center;labelBackgroundColor=#ffffff;verticalAlign=top;strokeWidth=2;strokeColor=#0080F0;shadow=0;dashed=0;shape=mxgraph.ios7.icons.settings;" vertex="1" parent="d7jxZyuMYCkjY3bklCve-128">
          <mxGeometry x="75" width="30" height="24.242424242424242" as="geometry" />
        </mxCell>
        <mxCell id="d7jxZyuMYCkjY3bklCve-125" value="&lt;font style=&quot;font-size: 10px;&quot;&gt;CDM TRIMS &lt;br&gt;Mappings&lt;/font&gt;" style="dashed=0;outlineConnect=0;html=1;align=center;labelPosition=center;verticalLabelPosition=bottom;verticalAlign=top;shape=mxgraph.weblogos.json_2" vertex="1" parent="d7jxZyuMYCkjY3bklCve-128">
          <mxGeometry x="18.374999999999996" y="40.60606060606061" width="60.300000000000004" height="15.272727272727273" as="geometry" />
        </mxCell>
        <mxCell id="d7jxZyuMYCkjY3bklCve-126" value="&lt;span style=&quot;font-size: 10px;&quot;&gt;Canonical Data &lt;br&gt;Model Schema&lt;/span&gt;" style="dashed=0;outlineConnect=0;html=1;align=center;labelPosition=center;verticalLabelPosition=bottom;verticalAlign=top;shape=mxgraph.weblogos.json_2" vertex="1" parent="d7jxZyuMYCkjY3bklCve-128">
          <mxGeometry x="97.5" y="39.3939393939394" width="60.300000000000004" height="15.272727272727273" as="geometry" />
        </mxCell>
        <mxCell id="d7jxZyuMYCkjY3bklCve-130" value="" style="endArrow=classic;html=1;rounded=0;exitX=0.5;exitY=1;exitDx=0;exitDy=0;entryX=0.475;entryY=0.075;entryDx=0;entryDy=0;entryPerimeter=0;startArrow=classic;startFill=1;" edge="1" parent="1" source="d7jxZyuMYCkjY3bklCve-3" target="d7jxZyuMYCkjY3bklCve-122">
          <mxGeometry relative="1" as="geometry">
            <mxPoint x="-100" y="340" as="sourcePoint" />
            <mxPoint y="340" as="targetPoint" />
          </mxGeometry>
        </mxCell>
        <mxCell id="d7jxZyuMYCkjY3bklCve-131" value="JSON" style="edgeLabel;resizable=0;html=1;align=center;verticalAlign=middle;" connectable="0" vertex="1" parent="d7jxZyuMYCkjY3bklCve-130">
          <mxGeometry relative="1" as="geometry" />
        </mxCell>
        <mxCell id="d7jxZyuMYCkjY3bklCve-132" value="" style="dashed=0;outlineConnect=0;html=1;align=center;labelPosition=center;verticalLabelPosition=bottom;verticalAlign=top;shape=mxgraph.weblogos.json_2" vertex="1" parent="1">
          <mxGeometry x="187.5" y="257" width="47.5" height="15" as="geometry" />
        </mxCell>
        <mxCell id="d7jxZyuMYCkjY3bklCve-133" value="" style="dashed=0;outlineConnect=0;html=1;align=center;labelPosition=center;verticalLabelPosition=bottom;verticalAlign=top;shape=mxgraph.weblogos.json_2" vertex="1" parent="1">
          <mxGeometry x="186.5" y="310" width="47.5" height="15" as="geometry" />
        </mxCell>
        <mxCell id="zP41roMC6v3SDmxVKGO1-2" value="" style="edgeStyle=entityRelationEdgeStyle;html=1;startArrow=none;startFill=0;endArrow=none;rounded=0;endFill=0;dashed=1;entryX=0;entryY=0.25;entryDx=0;entryDy=0;exitX=1;exitY=0.5;exitDx=0;exitDy=0;" edge="1" parent="1" source="zP41roMC6v3SDmxVKGO1-1" target="d7jxZyuMYCkjY3bklCve-3">
          <mxGeometry width="50" relative="1" as="geometry">
            <mxPoint x="-280" y="159.5" as="sourcePoint" />
            <mxPoint x="-100" y="160" as="targetPoint" />
            <Array as="points">
              <mxPoint x="-170" y="150" />
              <mxPoint x="-180" y="150" />
            </Array>
          </mxGeometry>
        </mxCell>
        <mxCell id="zP41roMC6v3SDmxVKGO1-3" value="" style="group;opacity=0;" vertex="1" connectable="0" parent="1">
          <mxGeometry x="234.7" y="605" width="122.5" height="86" as="geometry" />
        </mxCell>
        <mxCell id="d7jxZyuMYCkjY3bklCve-7" value="" style="shadow=0;dashed=0;html=1;strokeColor=none;fillColor=#4495D1;labelPosition=center;verticalLabelPosition=bottom;verticalAlign=top;align=center;outlineConnect=0;shape=mxgraph.veeam.storage_cluster;container=0;opacity=50;" vertex="1" parent="zP41roMC6v3SDmxVKGO1-3">
          <mxGeometry x="32.50000000000006" width="55.6" height="56" as="geometry" />
        </mxCell>
        <mxCell id="d7jxZyuMYCkjY3bklCve-72" value="&lt;b&gt;&lt;font style=&quot;font-size: 14px;&quot;&gt;Vanguard&lt;/font&gt;&lt;br&gt;&lt;font style=&quot;font-size: 9px;&quot;&gt;Cloudera Hadoop&lt;/font&gt;&lt;br&gt;&lt;/b&gt;" style="text;html=1;strokeColor=none;fillColor=none;align=center;verticalAlign=middle;whiteSpace=wrap;rounded=0;" vertex="1" parent="zP41roMC6v3SDmxVKGO1-3">
          <mxGeometry y="56" width="122.5" height="30" as="geometry" />
        </mxCell>
        <mxCell id="d7jxZyuMYCkjY3bklCve-113" value="4" style="text;html=1;strokeColor=none;fillColor=none;align=center;verticalAlign=middle;whiteSpace=wrap;rounded=0;" vertex="1" parent="1">
          <mxGeometry x="-230" y="580.0038461538461" width="60" height="27.692307692307693" as="geometry" />
        </mxCell>
        <mxCell id="zP41roMC6v3SDmxVKGO1-4" value="&lt;b&gt;&lt;font style=&quot;font-size: 12px;&quot;&gt;Product &lt;br&gt;Processors&lt;/font&gt;&lt;/b&gt;" style="rounded=1;whiteSpace=wrap;html=1;" vertex="1" parent="1">
          <mxGeometry x="-490" y="500" width="120" height="60" as="geometry" />
        </mxCell>
        <mxCell id="zP41roMC6v3SDmxVKGO1-5" value="" style="endArrow=none;dashed=1;html=1;strokeWidth=2;rounded=0;entryX=0.5;entryY=1;entryDx=0;entryDy=0;exitX=0.5;exitY=0;exitDx=0;exitDy=0;" edge="1" parent="1" source="zP41roMC6v3SDmxVKGO1-4" target="d7jxZyuMYCkjY3bklCve-1">
          <mxGeometry width="50" height="50" relative="1" as="geometry">
            <mxPoint x="-340" y="400" as="sourcePoint" />
            <mxPoint x="-320" y="340" as="targetPoint" />
          </mxGeometry>
        </mxCell>
        <mxCell id="zP41roMC6v3SDmxVKGO1-6" value="N" style="text;html=1;strokeColor=none;fillColor=none;align=center;verticalAlign=middle;whiteSpace=wrap;rounded=0;" vertex="1" parent="1">
          <mxGeometry x="-550" y="510" width="60" height="30" as="geometry" />
        </mxCell>
      </root>
    </mxGraphModel>
  </diagram>
</mxfile>
